<?xml version="1.0" encoding="UTF-8" standalone="no"?>
<svg
   width="500"
   zoomAndPan="magnify"
   viewBox="0 0 375 374.999991"
   height="500"
   preserveAspectRatio="xMidYMid meet"
   version="1.0"
   id="svg1056"
   sodipodi:docname="favicon.svg"
   inkscape:version="1.1 (c68e22c387, 2021-05-23)"
   xmlns:inkscape="http://www.inkscape.org/namespaces/inkscape"
   xmlns:sodipodi="http://sodipodi.sourceforge.net/DTD/sodipodi-0.dtd"
   xmlns="http://www.w3.org/2000/svg"
   xmlns:svg="http://www.w3.org/2000/svg">
  <sodipodi:namedview
     id="namedview1058"
     pagecolor="#ffffff"
     bordercolor="#666666"
     borderopacity="1.0"
     inkscape:pageshadow="2"
     inkscape:pageopacity="0.0"
     inkscape:pagecheckerboard="0"
     showgrid="false"
     inkscape:zoom="51.264"
     inkscape:cx="246.61556"
     inkscape:cy="252.4091"
     inkscape:window-width="1284"
     inkscape:window-height="1081"
     inkscape:window-x="2214"
     inkscape:window-y="1108"
     inkscape:window-maximized="0"
     inkscape:current-layer="svg1056" />
  <defs
     id="defs956">
    <g
       id="g942" />
    <clipPath
       id="22d2170065">
      <path
         d="M 76 78 L 321.628906 78 L 321.628906 324 L 76 324 Z M 76 78 "
         clip-rule="nonzero"
         id="path944" />
    </clipPath>
    <clipPath
       id="cc4d205454">
      <path
         d="M 53.128906 85 L 141 85 L 141 135 L 53.128906 135 Z M 53.128906 85 "
         clip-rule="nonzero"
         id="path947" />
    </clipPath>
    <clipPath
       id="5ac7d84199">
      <path
         d="M 89 120 L 296 120 L 296 214.804688 L 89 214.804688 Z M 89 120 "
         clip-rule="nonzero"
         id="path950" />
    </clipPath>
    <clipPath
       id="75a0cde7c0">
      <path
         d="M 100 187 L 307 187 L 307 281.894531 L 100 281.894531 Z M 100 187 "
         clip-rule="nonzero"
         id="path953" />
    </clipPath>
  </defs>
  <g
     clip-path="url(#22d2170065)"
     id="g960"
     transform="matrix(0.08963642,0,0,0.08963642,170.92154,173.47622)"
     style="stroke-width:11.1562">
    <path
       fill="#f4900c"
       d="m 76.1875,201.08594 c 0,-67.75 54.94141,-122.683596 122.71484,-122.683596 67.77735,0 122.72266,54.925776 122.72266,122.683596 0,67.75781 -54.94531,122.68359 -122.72266,122.68359 -67.77343,0 -122.71484,-54.92578 -122.71484,-122.68359 z m 0,0"
       fill-opacity="1"
       fill-rule="nonzero"
       id="path958"
       style="stroke-width:124.46" />
  </g>
  <g
     clip-path="url(#cc4d205454)"
     id="g964"
     transform="matrix(0.08963642,0,0,0.08963642,170.92154,173.47622)"
     style="stroke-width:11.1562">
    <path
       fill="#662113"
       d="m 138.76953,112.49609 c -1.98828,-1.98828 -5.92969,-1.46484 -10.07812,0.89063 C 104.14453,93.074219 64.332031,86.234375 62.53125,85.933594 c -4.058594,-0.660156 -7.875,2.0625 -8.550781,6.105468 -0.679688,4.046876 2.050781,7.882813 6.105469,8.558598 0.394531,0.0664 36.695312,6.35156 58.167972,23.49609 -2.04297,3.90234 -2.41016,7.54687 -0.51953,9.42969 2.90234,2.90625 9.96484,0.54687 15.77343,-5.25782 5.8125,-5.80078 8.16016,-12.86328 5.26172,-15.76953 z m 0,0"
       fill-opacity="1"
       fill-rule="nonzero"
       id="path962"
       style="stroke-width:124.46" />
  </g>
  <path
     fill="#5c913b"
     d="m 189.75114,179.17093 c 0,0 -2.07074,2.87782 -4.68105,3.51438 -1.98601,0.4846 -4.62538,0.53117 -4.88869,-0.0819 -0.2626,-0.6124 1.04798,-2.62397 3.3127,-3.59421 2.26472,-0.9699 6.25704,0.16176 6.25704,0.16176 z m 0,0"
     fill-opacity="1"
     fill-rule="nonzero"
     id="path966"
     style="stroke-width:1" />
  <g
     clip-path="url(#5ac7d84199)"
     id="g970"
     transform="matrix(0.08963642,0,0,0.08963642,170.92154,173.47622)"
     style="stroke-width:11.1562">
    <path
       fill="#ffffff"
       d="m 295.39844,157.54687 c -0.56641,-2.63281 -2.375,-5.32031 -2.13672,-7.4414 0.89453,-7.67969 -3.74219,-10 -9.55078,-11.92188 -24.46485,-8.13281 -49.36719,-14.38671 -75.00391,-17.49609 -9.16406,-1.11328 -11.42969,1.35547 -9.40234,10.36719 0.25781,1.11718 0.67578,2.19531 0.98828,3.30859 1.0039,3.75 3.79687,5.46875 7.24609,4.82813 3.37891,-0.64063 6.41016,0.16406 9.4961,0.78515 7.90625,1.57422 15.73828,3.40235 23.60546,5.13672 0.23829,0.42188 0.27344,0.85938 0.10938,1.31641 -8.48828,0.73047 -16.96094,1.73828 -25.44922,2.12109 -21.78516,0.96875 -43.18359,6.19922 -65.21875,5.17578 -10.48047,-0.47656 -21.125,1.26172 -31.58594,2.75781 -8.23437,1.19141 -16.57812,0.56641 -24.722652,2.30469 -4.144532,0.87891 -4.910157,1.9375 -2.464844,5.32031 4.855468,6.76563 9.933596,13.49219 19.992186,11.31641 1.76953,-0.38281 3.67188,-0.18359 5.51563,-0.38281 17.17968,-1.73828 34.41406,-2.70703 51.63281,-3.80469 18.60547,-1.1875 37.21094,-2.44922 55.8164,-3.72656 6.20704,-0.42188 12.39454,-1.00781 19.20704,-1.55469 -1.89844,3.05078 -4.36329,3.94922 -6.39063,5.33594 -6.86719,4.69922 -12.96484,10.29297 -19.26172,15.6875 -9.625,8.22656 -5.49609,19.19531 -0.80469,25.92578 0.875,1.25781 2.00782,1.97266 3.23047,0.25391 3.70703,-5.19141 9.22266,-8.26172 14.27735,-11.8086 14.5,-10.20312 29.6875,-19.32422 44.8789,-28.44922 3.94532,-2.375 7.90625,-4.71484 11.86719,-7.01953 3.23438,-1.86328 5.09766,-3.89453 4.12891,-8.33594 z m -51.94532,-12.10546 c 0.10938,-0.0547 0.21875,-0.0703 0.32813,-0.16407 -0.0742,0.0937 -0.16406,0.14844 -0.25391,0.20313 -0.0195,0 -0.0391,-0.0195 -0.0742,-0.0391 z m 0,0"
       fill-opacity="1"
       fill-rule="nonzero"
       id="path968"
       style="stroke-width:124.46" />
  </g>
  <g
     clip-path="url(#75a0cde7c0)"
     id="g974"
     transform="matrix(0.08963642,0,0,0.08963642,170.92154,173.47622)"
     style="stroke-width:11.1562">
    <path
       fill="#ffffff"
       d="m 101.1875,243.90234 c 0.56641,2.63282 2.375,5.32032 2.13672,7.44141 -0.89453,7.67969 3.74219,10 9.54687,11.91797 24.46875,8.13672 49.3711,14.39062 75.00391,17.49609 9.16797,1.11719 11.42969,-1.35156 9.40625,-10.36328 -0.25781,-1.11719 -0.67578,-2.19531 -0.98828,-3.30859 -1.00391,-3.75 -3.79688,-5.46875 -7.2461,-4.82813 -3.3789,0.64063 -6.41015,-0.16406 -9.49609,-0.78515 -7.90625,-1.57422 -15.73828,-3.40235 -23.60937,-5.13672 -0.23438,-0.42188 -0.27344,-0.85938 -0.10938,-1.31641 8.49219,-0.73437 16.96484,-1.73828 25.45313,-2.12109 21.78125,-0.96875 43.17968,-6.19922 65.21875,-5.17578 10.48046,0.47656 21.125,-1.26172 31.58593,-2.75782 8.23438,-1.1914 16.57813,-0.57031 24.72266,-2.30468 4.14453,-0.87891 4.91016,-1.9375 2.46484,-5.32032 -4.85937,-6.76562 -9.93359,-13.49218 -19.99218,-11.3164 -1.77344,0.38281 -3.67188,0.18359 -5.51563,0.38281 -17.17969,1.73828 -34.41797,2.70703 -51.63281,3.80469 -18.60547,1.1875 -37.21094,2.44922 -55.81641,3.72656 -6.20703,0.42187 -12.39844,1.00781 -19.20703,1.55469 1.89844,-3.05078 4.36328,-3.94922 6.39063,-5.33594 6.86328,-4.69922 12.96484,-10.29297 19.26171,-15.6875 9.6211,-8.22656 5.4961,-19.19531 0.80469,-25.92578 -0.8789,-1.26172 -2.00781,-1.97266 -3.23437,-0.25391 -3.70313,5.19141 -9.21875,8.26172 -14.27735,11.8086 -14.49609,10.20312 -29.6875,19.32421 -44.8789,28.44921 -3.94141,2.375 -7.90235,4.71485 -11.86719,7.01954 -3.23047,1.86328 -5.09375,3.89453 -4.125,8.33593 z m 51.94531,12.10157 c -0.10937,0.0547 -0.21875,0.0742 -0.32812,0.16406 0.0703,-0.0899 0.16406,-0.14453 0.2539,-0.19922 0.0195,0 0.0352,0.0195 0.0742,0.0352 z m 0,0"
       fill-opacity="1"
       fill-rule="nonzero"
       id="path972"
       style="stroke-width:124.46" />
  </g>
</svg>
