<svg xmlns="http://www.w3.org/2000/svg" xmlns:xlink="http://www.w3.org/1999/xlink" width="500" zoomAndPan="magnify" viewBox="0 0 375 374.999991" height="500" preserveAspectRatio="xMidYMid meet" version="1.0"><defs><g/><clipPath id="22d2170065"><path d="M 76 78 L 321.628906 78 L 321.628906 324 L 76 324 Z M 76 78 " clip-rule="nonzero"/></clipPath><clipPath id="cc4d205454"><path d="M 53.128906 85 L 141 85 L 141 135 L 53.128906 135 Z M 53.128906 85 " clip-rule="nonzero"/></clipPath><clipPath id="5ac7d84199"><path d="M 89 120 L 296 120 L 296 214.804688 L 89 214.804688 Z M 89 120 " clip-rule="nonzero"/></clipPath><clipPath id="75a0cde7c0"><path d="M 100 187 L 307 187 L 307 281.894531 L 100 281.894531 Z M 100 187 " clip-rule="nonzero"/></clipPath></defs><g clip-path="url(#22d2170065)"><path fill="#f4900c" d="M 76.1875 201.085938 C 76.1875 133.335938 131.128906 78.402344 198.902344 78.402344 C 266.679688 78.402344 321.625 133.328125 321.625 201.085938 C 321.625 268.84375 266.679688 323.769531 198.902344 323.769531 C 131.128906 323.769531 76.1875 268.84375 76.1875 201.085938 Z M 76.1875 201.085938 " fill-opacity="1" fill-rule="nonzero"/></g><g clip-path="url(#cc4d205454)"><path fill="#662113" d="M 138.769531 112.496094 C 136.78125 110.507812 132.839844 111.03125 128.691406 113.386719 C 104.144531 93.074219 64.332031 86.234375 62.53125 85.933594 C 58.472656 85.273438 54.65625 87.996094 53.980469 92.039062 C 53.300781 96.085938 56.03125 99.921875 60.085938 100.597656 C 60.480469 100.664062 96.78125 106.949219 118.253906 124.09375 C 116.210938 127.996094 115.84375 131.640625 117.734375 133.523438 C 120.636719 136.429688 127.699219 134.070312 133.507812 128.265625 C 139.320312 122.464844 141.667969 115.402344 138.769531 112.496094 Z M 138.769531 112.496094 " fill-opacity="1" fill-rule="nonzero"/></g><path fill="#5c913b" d="M 210.066406 63.53125 C 210.066406 63.53125 186.964844 95.636719 157.84375 102.738281 C 135.6875 108.144531 106.242188 108.664062 103.304688 101.824219 C 100.375 94.992188 114.996094 72.550781 140.261719 61.726562 C 165.527344 50.90625 210.066406 63.53125 210.066406 63.53125 Z M 210.066406 63.53125 " fill-opacity="1" fill-rule="nonzero"/><g clip-path="url(#5ac7d84199)"><path fill="#ffffff" d="M 295.398438 157.546875 C 294.832031 154.914062 293.023438 152.226562 293.261719 150.105469 C 294.15625 142.425781 289.519531 140.105469 283.710938 138.183594 C 259.246094 130.050781 234.34375 123.796875 208.707031 120.6875 C 199.542969 119.574219 197.277344 122.042969 199.304688 131.054688 C 199.5625 132.171875 199.980469 133.25 200.292969 134.363281 C 201.296875 138.113281 204.089844 139.832031 207.539062 139.191406 C 210.917969 138.550781 213.949219 139.355469 217.035156 139.976562 C 224.941406 141.550781 232.773438 143.378906 240.640625 145.113281 C 240.878906 145.535156 240.914062 145.972656 240.75 146.429688 C 232.261719 147.160156 223.789062 148.167969 215.300781 148.550781 C 193.515625 149.519531 172.117188 154.75 150.082031 153.726562 C 139.601562 153.25 128.957031 154.988281 118.496094 156.484375 C 110.261719 157.675781 101.917969 157.050781 93.773438 158.789062 C 89.628906 159.667969 88.863281 160.726562 91.308594 164.109375 C 96.164062 170.875 101.242188 177.601562 111.300781 175.425781 C 113.070312 175.042969 114.972656 175.242188 116.816406 175.042969 C 133.996094 173.304688 151.230469 172.335938 168.449219 171.238281 C 187.054688 170.050781 205.660156 168.789062 224.265625 167.511719 C 230.472656 167.089844 236.660156 166.503906 243.472656 165.957031 C 241.574219 169.007812 239.109375 169.90625 237.082031 171.292969 C 230.214844 175.992188 224.117188 181.585938 217.820312 186.980469 C 208.195312 195.207031 212.324219 206.175781 217.015625 212.90625 C 217.890625 214.164062 219.023438 214.878906 220.246094 213.160156 C 223.953125 207.96875 229.46875 204.898438 234.523438 201.351562 C 249.023438 191.148438 264.210938 182.027344 279.402344 172.902344 C 283.347656 170.527344 287.308594 168.1875 291.269531 165.882812 C 294.503906 164.019531 296.367188 161.988281 295.398438 157.546875 Z M 243.453125 145.441406 C 243.5625 145.386719 243.671875 145.371094 243.78125 145.277344 C 243.707031 145.371094 243.617188 145.425781 243.527344 145.480469 C 243.507812 145.480469 243.488281 145.460938 243.453125 145.441406 Z M 243.453125 145.441406 " fill-opacity="1" fill-rule="nonzero"/></g><g clip-path="url(#75a0cde7c0)"><path fill="#ffffff" d="M 101.1875 243.902344 C 101.753906 246.535156 103.5625 249.222656 103.324219 251.34375 C 102.429688 259.023438 107.066406 261.34375 112.871094 263.261719 C 137.339844 271.398438 162.242188 277.652344 187.875 280.757812 C 197.042969 281.875 199.304688 279.40625 197.28125 270.394531 C 197.023438 269.277344 196.605469 268.199219 196.292969 267.085938 C 195.289062 263.335938 192.496094 261.617188 189.046875 262.257812 C 185.667969 262.898438 182.636719 262.09375 179.550781 261.472656 C 171.644531 259.898438 163.8125 258.070312 155.941406 256.335938 C 155.707031 255.914062 155.667969 255.476562 155.832031 255.019531 C 164.324219 254.285156 172.796875 253.28125 181.285156 252.898438 C 203.066406 251.929688 224.464844 246.699219 246.503906 247.722656 C 256.984375 248.199219 267.628906 246.460938 278.089844 244.964844 C 286.324219 243.773438 294.667969 244.394531 302.8125 242.660156 C 306.957031 241.78125 307.722656 240.722656 305.277344 237.339844 C 300.417969 230.574219 295.34375 223.847656 285.285156 226.023438 C 283.511719 226.40625 281.613281 226.207031 279.769531 226.40625 C 262.589844 228.144531 245.351562 229.113281 228.136719 230.210938 C 209.53125 231.398438 190.925781 232.660156 172.320312 233.9375 C 166.113281 234.359375 159.921875 234.945312 153.113281 235.492188 C 155.011719 232.441406 157.476562 231.542969 159.503906 230.15625 C 166.367188 225.457031 172.46875 219.863281 178.765625 214.46875 C 188.386719 206.242188 184.261719 195.273438 179.570312 188.542969 C 178.691406 187.28125 177.5625 186.570312 176.335938 188.289062 C 172.632812 193.480469 167.117188 196.550781 162.058594 200.097656 C 147.5625 210.300781 132.371094 219.421875 117.179688 228.546875 C 113.238281 230.921875 109.277344 233.261719 105.3125 235.566406 C 102.082031 237.429688 100.21875 239.460938 101.1875 243.902344 Z M 153.132812 256.003906 C 153.023438 256.058594 152.914062 256.078125 152.804688 256.167969 C 152.875 256.078125 152.96875 256.023438 153.058594 255.96875 C 153.078125 255.96875 153.09375 255.988281 153.132812 256.003906 Z M 153.132812 256.003906 " fill-opacity="1" fill-rule="nonzero"/></g><g fill="#000000" fill-opacity="1"><g transform="translate(150.231684, 168.534701)"><g><path d="M 3.199219 -1.054688 L 3.414062 -0.734375 L 3.53125 -0.660156 L 3.757812 -0.613281 L 3.945312 -0.6875 L 4.148438 -0.765625 L 4.261719 -0.757812 L 4.488281 -0.933594 L 4.707031 -1.0625 L 4.84375 -1.121094 L 5 -1.210938 L 5.144531 -1.222656 L 5.210938 -1.386719 L 5.363281 -1.523438 L 5.492188 -1.5 L 5.703125 -1.722656 L 5.839844 -1.796875 L 5.851562 -1.878906 L 5.988281 -1.984375 L 6.128906 -2.042969 L 6.214844 -2.175781 L 6.402344 -2.285156 L 6.464844 -2.5 L 6.542969 -2.550781 L 6.660156 -2.71875 L 6.773438 -2.953125 L 6.753906 -2.984375 L 6.882812 -3.21875 L 6.890625 -3.296875 L 6.929688 -3.476562 L 6.96875 -3.574219 L 6.882812 -3.921875 L 6.789062 -4.125 L 6.824219 -4.269531 L 6.753906 -4.347656 L 6.613281 -4.546875 L 6.589844 -4.640625 L 6.410156 -4.707031 L 6.289062 -4.84375 L 6.15625 -4.898438 L 6.09375 -5.117188 L 6.011719 -5.113281 L 5.859375 -5.277344 L 5.644531 -5.328125 L 5.53125 -5.367188 L 5.433594 -5.394531 L 5.3125 -5.496094 L 5.175781 -5.632812 L 5.035156 -5.558594 L 4.820312 -5.6875 L 4.6875 -5.742188 L 4.449219 -5.726562 L 4.390625 -5.835938 L 4.027344 -6.003906 L 3.898438 -5.992188 L 3.804688 -5.972656 L 3.523438 -6.082031 L 3.429688 -6.074219 L 3.230469 -6.1875 L 3.226562 -6.25 L 2.921875 -6.199219 L 2.851562 -6.304688 L 2.570312 -6.464844 L 2.441406 -6.46875 L 2.261719 -6.523438 L 2.03125 -6.570312 L 2 -6.601562 L 1.789062 -6.601562 L 1.4375 -6.835938 L 1.4375 -6.851562 L 1.179688 -6.863281 L 1.183594 -7.023438 L 1.050781 -7.097656 L 0.894531 -7.261719 L 0.753906 -7.414062 L 0.78125 -7.511719 L 0.644531 -7.597656 L 0.691406 -7.890625 L 0.640625 -8.125 L 0.695312 -8.304688 L 0.832031 -8.410156 L 0.929688 -8.578125 L 1.050781 -8.683594 L 1.089844 -8.816406 L 1.222656 -9.03125 L 1.300781 -9.054688 L 1.335938 -9.25 L 1.394531 -9.316406 L 1.480469 -9.46875 L 1.597656 -9.585938 L 1.71875 -9.691406 L 1.871094 -9.832031 L 1.910156 -9.976562 L 2.121094 -10.136719 L 2.132812 -10.21875 L 2.289062 -10.308594 L 2.472656 -10.417969 L 2.621094 -10.585938 L 2.617188 -10.652344 L 2.835938 -10.746094 L 2.910156 -10.785156 L 3.078125 -10.941406 L 3.222656 -11.144531 L 3.476562 -11.222656 L 3.605469 -11.441406 L 3.734375 -11.433594 L 3.835938 -11.570312 L 3.863281 -11.621094 L 4.007812 -11.660156 L 4.167969 -11.867188 L 4.246094 -11.886719 L 4.46875 -11.902344 L 4.664062 -12.09375 L 4.726562 -12.128906 L 4.902344 -12.125 L 4.960938 -12.207031 L 5.1875 -12.222656 L 5.386719 -12.335938 L 5.648438 -12.289062 L 5.84375 -12.207031 L 5.925781 -11.96875 L 6.078125 -11.867188 L 6.113281 -11.808594 L 6.1875 -11.441406 L 6.355469 -11.292969 L 6.535156 -11.257812 L 6.617188 -11.230469 L 6.972656 -11.417969 L 6.980469 -11.5625 L 7.121094 -11.621094 L 7.179688 -11.914062 L 7.210938 -11.929688 L 6.988281 -12.347656 L 7.042969 -12.527344 L 6.988281 -12.621094 L 6.773438 -12.6875 L 6.671875 -12.792969 L 6.675781 -12.953125 L 6.574219 -13.027344 L 6.4375 -13.128906 L 6.203125 -13.289062 L 6.148438 -13.363281 L 5.988281 -13.371094 L 5.832031 -13.34375 L 5.632812 -13.410156 L 5.269531 -13.335938 L 5.152344 -13.410156 L 4.9375 -13.265625 L 4.800781 -13.367188 L 4.640625 -13.179688 L 4.550781 -13.269531 L 4.390625 -13.066406 L 4.164062 -13.117188 L 4.0625 -12.964844 L 3.996094 -12.992188 L 3.800781 -12.800781 L 3.574219 -12.820312 L 3.535156 -12.703125 L 3.414062 -12.597656 L 3.148438 -12.484375 L 3.054688 -12.460938 L 2.890625 -12.257812 L 2.890625 -12.273438 L 2.664062 -12.082031 L 2.515625 -12.105469 L 2.242188 -11.894531 L 2.257812 -11.652344 L 2.039062 -11.558594 L 1.953125 -11.457031 L 1.84375 -11.367188 L 1.722656 -11.296875 L 1.636719 -11.128906 L 1.445312 -11.132812 L 1.269531 -10.878906 L 1.164062 -10.808594 L 1.109375 -10.644531 L 0.988281 -10.570312 L 0.851562 -10.417969 L 0.796875 -10.316406 L 0.621094 -10.289062 L 0.507812 -10.089844 L 0.4375 -9.941406 L 0.335938 -9.773438 L 0.246094 -9.6875 L 0.234375 -9.605469 L 0.0742188 -9.371094 L 0.0195312 -9.222656 L -0.101562 -9.164062 L -0.191406 -9.046875 L -0.242188 -8.882812 L -0.210938 -8.660156 L -0.378906 -8.519531 L -0.328125 -8.476562 L -0.480469 -8.335938 L -0.367188 -8.136719 L -0.453125 -7.96875 L -0.429688 -7.84375 L -0.421875 -7.492188 L -0.382812 -7.398438 L -0.402344 -7.203125 L -0.28125 -7.101562 L -0.226562 -6.976562 L -0.261719 -6.796875 L -0.117188 -6.566406 L 0.046875 -6.53125 L 0.0234375 -6.398438 L 0.289062 -6.273438 L 0.292969 -6.210938 L 0.425781 -6.140625 L 0.578125 -6.039062 L 0.71875 -5.871094 L 0.945312 -5.839844 L 1.015625 -5.714844 L 1.222656 -5.746094 L 1.328125 -5.609375 L 1.4375 -5.664062 L 1.59375 -5.464844 L 1.664062 -5.390625 L 1.855469 -5.402344 L 2.09375 -5.4375 L 2.121094 -5.277344 L 2.496094 -5.207031 L 2.605469 -5.214844 L 2.816406 -5.179688 L 3.066406 -5.070312 L 3.128906 -5.074219 L 3.351562 -4.882812 L 3.464844 -4.839844 L 3.65625 -4.886719 L 3.839844 -4.753906 L 3.964844 -4.796875 L 4.222656 -4.78125 L 4.382812 -4.566406 L 4.429688 -4.570312 L 4.675781 -4.492188 L 4.839844 -4.453125 L 4.902344 -4.476562 L 5.105469 -4.3125 L 5.25 -4.308594 L 5.449219 -4.242188 L 5.566406 -4.167969 L 5.550781 -4.121094 L 5.71875 -4.019531 L 5.726562 -3.90625 L 5.753906 -3.539062 L 5.683594 -3.359375 L 5.734375 -3.332031 L 5.574219 -3.125 L 5.480469 -3.054688 L 5.441406 -2.957031 L 5.25 -2.71875 L 5.203125 -2.699219 L 5.082031 -2.5625 L 4.851562 -2.417969 L 4.761719 -2.347656 L 4.667969 -2.292969 L 4.542969 -2.269531 L 4.328125 -2.09375 L 4.28125 -2.089844 L 4.101562 -1.917969 L 4.039062 -1.914062 L 3.9375 -1.746094 L 3.8125 -1.660156 L 3.625 -1.628906 L 3.285156 -1.429688 L 3.289062 -1.367188 L 3.269531 -1.1875 Z M 3.199219 -1.054688 "/></g></g></g><g fill="#000000" fill-opacity="1"><g transform="translate(163.350581, 167.629612)"><g><path d="M 8.464844 0.203125 L 8.335938 -0.046875 L 8.238281 -0.265625 L 8.195312 -0.421875 L 8.234375 -0.601562 L 8.125 -0.769531 L 8.148438 -0.867188 L 7.976562 -1.046875 L 8.066406 -1.183594 L 8.027344 -1.273438 L 7.824219 -1.390625 L 7.855469 -1.648438 L 7.804688 -1.675781 L 7.824219 -1.902344 L 7.75 -2.027344 L 7.710938 -2.136719 L 7.644531 -2.386719 L 7.613281 -2.59375 L 7.527344 -2.683594 L 7.453125 -2.855469 L 7.378906 -2.960938 L 7.398438 -3.1875 L 7.269531 -3.195312 L 7.210938 -3.335938 L 7.226562 -3.5625 L 7.054688 -3.726562 L 7.027344 -3.898438 L 7.003906 -3.996094 L 6.925781 -4.214844 L 6.933594 -4.328125 L 6.777344 -4.507812 L 6.738281 -4.601562 L 6.726562 -4.746094 L 6.722656 -4.839844 L 6.5625 -5.070312 L 6.597656 -5.234375 L 6.515625 -5.292969 L 6.519531 -5.4375 L 6.394531 -5.621094 L 6.34375 -5.695312 L 6.230469 -5.929688 L 6.3125 -6.128906 L 6.535156 -6.128906 L 6.640625 -6.230469 L 6.996094 -6.433594 L 7.089844 -6.46875 L 7.222656 -6.65625 L 7.328125 -6.757812 L 7.351562 -6.855469 L 7.261719 -7.21875 L 7.1875 -7.359375 L 7.046875 -7.316406 L 7.039062 -7.445312 L 6.792969 -7.300781 L 6.480469 -7.199219 L 6.410156 -7.273438 L 6.289062 -7.167969 L 6.148438 -7.09375 L 5.859375 -7.089844 L 5.796875 -7.101562 L 5.707031 -7.242188 L 5.570312 -7.375 L 5.519531 -7.644531 L 5.445312 -7.769531 L 5.378906 -7.828125 L 5.253906 -7.964844 L 5.304688 -8.191406 L 5.121094 -8.257812 L 5.144531 -8.40625 L 5.078125 -8.6875 L 4.957031 -8.792969 L 4.832031 -8.960938 L 4.785156 -8.972656 L 4.742188 -9.128906 L 4.726562 -9.339844 L 4.589844 -9.488281 L 4.617188 -9.570312 L 4.484375 -9.851562 L 4.332031 -9.953125 L 4.34375 -10.015625 L 4.28125 -10.222656 L 4.140625 -10.386719 L 4.105469 -10.449219 L 3.980469 -10.632812 L 4.003906 -10.746094 L 3.941406 -11 L 3.851562 -11.121094 L 3.640625 -11.171875 L 3.648438 -11.285156 L 3.5625 -11.566406 L 3.488281 -11.722656 L 3.40625 -11.75 L 3.410156 -11.925781 L 3.261719 -11.996094 L 3.167969 -12.164062 L 3.027344 -12.347656 L 2.992188 -12.648438 L 2.808594 -12.734375 L 2.757812 -12.808594 L 2.644531 -13.027344 L 2.429688 -13.109375 L 2.304688 -13.082031 L 2.269531 -13.113281 L 1.875 -13.039062 L 1.71875 -12.945312 L 1.628906 -12.894531 L 1.617188 -12.828125 L 1.519531 -12.613281 L 1.5625 -12.472656 L 1.519531 -12.148438 L 1.546875 -11.988281 L 1.445312 -11.820312 L 1.550781 -11.714844 L 1.449219 -11.550781 L 1.429688 -11.371094 L 1.476562 -11.117188 L 1.453125 -11.003906 L 1.488281 -10.941406 L 1.507812 -10.703125 L 1.449219 -10.585938 L 1.382812 -10.40625 L 1.476562 -10.21875 L 1.386719 -10.132812 L 1.417969 -9.894531 L 1.410156 -9.765625 L 1.390625 -9.621094 L 1.308594 -9.40625 L 1.265625 -9.324219 L 1.324219 -9.152344 L 1.351562 -8.976562 L 1.207031 -8.742188 L 1.21875 -8.613281 L 1.292969 -8.476562 L 1.308594 -8.21875 L 1.136719 -8.144531 L 1.179688 -7.988281 L 1.191406 -7.84375 L 1.09375 -7.613281 L 1.183594 -7.488281 L 1.0625 -7.402344 L 1.023438 -7.238281 L 1.132812 -7.054688 L 1.015625 -6.917969 L 1.105469 -6.746094 L 0.988281 -6.609375 L 0.933594 -6.445312 L 0.90625 -6.171875 L 0.949219 -5.984375 L 0.910156 -5.867188 L 0.914062 -5.804688 L 0.867188 -5.574219 L 0.765625 -5.425781 L 0.742188 -5.261719 L 0.75 -5.167969 L 0.734375 -4.910156 L 0.742188 -4.796875 L 0.75 -4.6875 L 0.570312 -4.304688 L 0.65625 -4.183594 L 0.523438 -4.0625 L 0.484375 -3.914062 L 0.515625 -3.660156 L 0.402344 -3.492188 L 0.46875 -3.433594 L 0.382812 -3.28125 L 0.425781 -3.109375 L 0.308594 -2.941406 L 0.339844 -2.734375 L 0.238281 -2.582031 L 0.3125 -2.425781 L 0.136719 -2.222656 L 0.144531 -2.109375 L 0.0898438 -1.976562 L 0.03125 -1.621094 L -0.0117188 -1.332031 L 0.09375 -1.210938 L -0.0078125 -1.058594 L 0.125 -0.953125 L 0.0859375 -0.855469 L 0.210938 -0.671875 L 0.535156 -0.613281 L 0.550781 -0.632812 L 0.789062 -0.664062 L 0.859375 -0.765625 L 0.964844 -0.898438 L 1.039062 -1.226562 L 1.058594 -1.402344 L 1.078125 -1.566406 L 1.121094 -1.664062 L 1.171875 -1.84375 L 1.246094 -1.929688 L 1.179688 -2.167969 L 1.253906 -2.285156 L 1.246094 -2.410156 L 1.363281 -2.578125 L 1.335938 -2.738281 L 1.417969 -2.921875 L 1.410156 -3.03125 L 1.433594 -3.144531 L 1.496094 -3.4375 L 1.511719 -3.441406 L 1.570312 -3.730469 L 1.609375 -3.878906 L 1.636719 -3.914062 L 1.6875 -4.125 L 1.6875 -4.367188 L 1.75 -4.402344 L 1.898438 -4.574219 L 2.003906 -4.675781 L 2.164062 -4.6875 L 2.316406 -4.792969 L 2.585938 -4.84375 L 2.726562 -4.886719 L 2.816406 -4.941406 L 2.941406 -5.011719 L 3.226562 -5.082031 L 3.246094 -5.019531 L 3.515625 -5.070312 L 3.601562 -5.21875 L 3.714844 -5.179688 L 3.964844 -5.308594 L 4.011719 -5.328125 L 4.25 -5.34375 L 4.613281 -5.402344 L 4.710938 -5.601562 L 4.765625 -5.554688 L 4.914062 -5.679688 L 5.199219 -5.539062 L 5.257812 -5.351562 L 5.265625 -5.269531 L 5.46875 -5.109375 L 5.402344 -4.878906 L 5.507812 -4.773438 L 5.628906 -4.621094 L 5.578125 -4.472656 L 5.667969 -4.304688 L 5.816406 -4.234375 L 5.792969 -4.105469 L 5.8125 -3.847656 L 5.941406 -3.808594 L 6.050781 -3.640625 L 6.097656 -3.433594 L 6.058594 -3.304688 L 6.152344 -3.101562 L 6.289062 -2.96875 L 6.21875 -2.820312 L 6.382812 -2.765625 L 6.382812 -2.523438 L 6.507812 -2.339844 L 6.496094 -2.292969 L 6.476562 -2.113281 L 6.558594 -1.863281 L 6.710938 -1.714844 L 6.738281 -1.554688 L 6.828125 -1.464844 L 6.777344 -1.269531 L 6.847656 -1.144531 L 6.9375 -0.992188 L 6.996094 -0.867188 L 7.050781 -0.773438 L 6.984375 -0.5625 L 7.171875 -0.429688 L 7.074219 -0.199219 L 7.183594 -0.015625 L 7.304688 0.136719 L 7.292969 0.441406 L 7.433594 0.578125 L 7.433594 0.59375 L 7.546875 0.84375 L 7.664062 0.929688 L 7.847656 1.015625 L 8.132812 0.976562 L 8.300781 0.839844 L 8.3125 0.789062 L 8.34375 0.53125 L 8.464844 0.425781 Z M 2.136719 -5.761719 L 1.90625 -5.855469 L 1.953125 -6.117188 L 1.992188 -6.230469 L 2.027344 -6.425781 L 2.007812 -6.472656 L 2.09375 -6.621094 L 2.078125 -6.8125 L 2.117188 -6.976562 L 2.183594 -7.191406 L 2.230469 -7.402344 L 2.171875 -7.542969 L 2.238281 -7.5625 L 2.246094 -7.867188 L 2.222656 -8.011719 L 2.300781 -8.046875 L 2.285156 -8.253906 L 2.335938 -8.453125 L 2.328125 -8.5625 L 2.410156 -8.777344 L 2.402344 -8.890625 L 2.351562 -9.125 L 2.464844 -9.359375 L 2.367188 -9.59375 L 2.441406 -9.695312 L 2.378906 -9.898438 L 2.394531 -9.914062 L 2.542969 -10.117188 L 2.429688 -10.351562 L 2.453125 -10.449219 L 2.546875 -10.710938 L 2.558594 -10.792969 L 2.519531 -10.902344 L 2.585938 -11.082031 L 2.667969 -11.070312 L 2.660156 -10.976562 L 2.714844 -10.867188 L 2.882812 -10.734375 L 2.945312 -10.546875 L 3.015625 -10.46875 L 3.046875 -10.214844 L 3.054688 -10.089844 L 3.097656 -9.949219 L 3.285156 -9.769531 L 3.359375 -9.628906 L 3.304688 -9.511719 L 3.390625 -9.453125 L 3.453125 -9.234375 L 3.605469 -9.101562 L 3.585938 -8.90625 L 3.65625 -8.816406 L 3.796875 -8.648438 L 3.84375 -8.441406 L 3.960938 -8.386719 L 4.050781 -8.199219 L 4.039062 -8.136719 L 4.160156 -8.015625 L 4.253906 -7.863281 L 4.277344 -7.71875 L 4.40625 -7.472656 L 4.398438 -7.34375 L 4.550781 -7.257812 L 4.566406 -7.035156 L 4.683594 -6.960938 L 4.632812 -6.765625 L 4.632812 -6.558594 L 4.457031 -6.496094 L 4.207031 -6.414062 L 4.132812 -6.363281 L 3.984375 -6.382812 L 3.792969 -6.386719 L 3.691406 -6.25 L 3.578125 -6.246094 L 3.273438 -6.222656 L 3.152344 -6.167969 L 2.976562 -6.121094 L 2.898438 -6.085938 L 2.742188 -6.042969 L 2.601562 -5.96875 L 2.363281 -5.953125 L 2.296875 -5.769531 Z M 2.136719 -5.761719 "/></g></g></g><g fill="#000000" fill-opacity="1"><g transform="translate(176.980147, 166.689291)"><g><path d="M 3.332031 -0.757812 L 3.644531 -0.875 L 3.703125 -0.929688 L 3.792969 -1.015625 L 3.828125 -1.210938 L 3.996094 -1.367188 L 4.089844 -1.40625 L 4.097656 -1.757812 L 4.050781 -1.929688 L 4.171875 -2.050781 L 4.207031 -2.230469 L 4.199219 -2.359375 L 4.222656 -2.488281 L 4.257812 -2.667969 L 4.261719 -2.828125 L 4.265625 -3.019531 L 4.257812 -3.117188 L 4.359375 -3.316406 L 4.289062 -3.390625 L 4.34375 -3.539062 L 4.488281 -3.742188 L 4.449219 -3.820312 L 4.410156 -4.199219 L 4.472656 -4.414062 L 4.515625 -4.480469 L 4.519531 -4.65625 L 4.5625 -4.773438 L 4.597656 -4.933594 L 4.621094 -5.050781 L 4.699219 -5.3125 L 4.695312 -5.390625 L 4.796875 -5.542969 L 4.851562 -5.675781 L 4.890625 -5.820312 L 4.917969 -6.128906 L 4.875 -6.285156 L 4.847656 -6.429688 L 4.890625 -6.527344 L 4.929688 -6.640625 L 5.042969 -6.859375 L 5.117188 -6.960938 L 5.152344 -7.15625 L 5.105469 -7.34375 L 5.097656 -7.457031 L 5.171875 -7.574219 L 5.320312 -7.742188 L 5.242188 -7.945312 L 5.292969 -8.140625 L 5.304688 -8.207031 L 5.359375 -8.339844 L 5.503906 -8.542969 L 5.542969 -8.6875 L 5.496094 -8.878906 L 5.5625 -9.074219 L 5.683594 -9.195312 L 5.648438 -9.242188 L 5.695312 -9.515625 L 5.703125 -9.613281 L 5.75 -9.839844 L 5.9375 -9.933594 L 5.867188 -10.042969 L 5.933594 -10.222656 L 5.988281 -10.355469 L 6.035156 -10.582031 L 6.042969 -10.726562 L 6.183594 -10.800781 L 6.222656 -10.917969 L 6.242188 -11.09375 L 6.339844 -11.308594 L 6.332031 -11.4375 L 6.429688 -11.605469 L 6.535156 -11.738281 L 6.609375 -11.839844 L 6.546875 -12.011719 L 6.632812 -12.195312 L 6.761719 -12.398438 L 6.796875 -12.558594 L 6.828125 -12.820312 L 6.886719 -12.886719 L 6.902344 -13.160156 L 6.882812 -13.191406 L 6.953125 -13.339844 L 6.875 -13.542969 L 6.519531 -13.566406 L 6.347656 -13.523438 L 6.25 -13.5625 L 6.097656 -13.425781 L 6.007812 -13.339844 L 5.886719 -13.234375 L 5.691406 -13.0625 L 5.644531 -12.800781 L 5.578125 -12.605469 L 5.503906 -12.519531 L 5.5 -12.34375 L 5.433594 -12.113281 L 5.316406 -11.945312 L 5.386719 -11.851562 L 5.289062 -11.6875 L 5.292969 -11.605469 L 5.117188 -11.371094 L 5.144531 -11.179688 L 5.039062 -11.074219 L 5.070312 -10.886719 L 5.03125 -10.738281 L 4.992188 -10.640625 L 4.921875 -10.488281 L 4.785156 -10.351562 L 4.863281 -10.179688 L 4.792969 -10.03125 L 4.710938 -9.800781 L 4.621094 -9.714844 L 4.511719 -9.417969 L 4.542969 -9.214844 L 4.507812 -9.066406 L 4.46875 -8.886719 L 4.324219 -8.667969 L 4.359375 -8.625 L 4.339844 -8.445312 L 4.320312 -8.25 L 4.234375 -8.132812 L 4.152344 -7.886719 L 4.175781 -7.792969 L 4.046875 -7.589844 L 4.058594 -7.414062 L 3.980469 -7.394531 L 4.046875 -7.125 L 3.9375 -7.101562 L 3.902344 -6.875 L 3.941406 -6.78125 L 3.890625 -6.585938 L 3.753906 -6.464844 L 3.816406 -6.292969 L 3.671875 -6.074219 L 3.648438 -5.914062 L 3.675781 -5.769531 L 3.617188 -5.652344 L 3.601562 -5.445312 L 3.609375 -5.347656 L 3.496094 -5.132812 L 3.464844 -5.082031 L 3.5625 -4.847656 L 3.488281 -4.746094 L 3.375 -4.5625 L 3.382812 -4.402344 L 3.433594 -4.132812 L 3.351562 -3.953125 L 3.292969 -3.867188 L 3.226562 -3.6875 L 3.289062 -3.464844 L 3.308594 -3.386719 L 3.222656 -3.238281 L 3.144531 -3.007812 L 3.199219 -2.914062 L 3.136719 -2.621094 L 3.140625 -2.605469 L 3.042969 -2.582031 L 2.980469 -2.578125 L 2.808594 -2.726562 L 2.855469 -2.988281 L 2.644531 -3.019531 L 2.664062 -3.230469 L 2.546875 -3.285156 L 2.523438 -3.429688 L 2.472656 -3.652344 L 2.40625 -3.726562 L 2.34375 -3.929688 L 2.3125 -4.121094 L 2.207031 -4.242188 L 2.058594 -4.34375 L 1.980469 -4.53125 L 1.933594 -4.734375 L 1.890625 -4.878906 L 1.808594 -4.917969 L 1.792969 -5.160156 L 1.675781 -5.441406 L 1.667969 -5.550781 L 1.613281 -5.691406 L 1.484375 -5.921875 L 1.566406 -6.105469 L 1.511719 -6.199219 L 1.503906 -6.308594 L 1.421875 -6.59375 L 1.402344 -6.640625 L 1.230469 -6.804688 L 1.21875 -6.949219 L 1.285156 -7.175781 L 1.179688 -7.296875 L 1.132812 -7.519531 L 1.050781 -7.5625 L 1.09375 -7.835938 L 1.050781 -7.992188 L 1.078125 -8.058594 L 1.042969 -8.332031 L 0.925781 -8.449219 L 1.007812 -8.632812 L 0.917969 -8.800781 L 0.898438 -8.832031 L 0.882812 -9.039062 L 0.90625 -9.171875 L 0.792969 -9.453125 L 0.894531 -9.554688 L 0.851562 -9.746094 L 0.859375 -9.839844 L 0.875 -10.082031 L 0.882812 -10.210938 L 0.78125 -10.542969 L 0.957031 -10.554688 L 0.960938 -10.472656 L 1.191406 -10.378906 L 1.339844 -10.324219 L 1.644531 -10.550781 L 1.671875 -10.632812 L 1.660156 -11.035156 L 1.632812 -11.191406 L 1.652344 -11.386719 L 1.53125 -11.492188 L 1.292969 -11.683594 L 1.113281 -11.78125 L 0.972656 -11.707031 L 0.726562 -11.789062 L 0.433594 -11.640625 L 0.257812 -11.613281 L 0.183594 -11.542969 L -0.0117188 -11.351562 L -0.03125 -11.160156 L -0.0859375 -11.027344 L -0.164062 -10.972656 L -0.304688 -10.675781 L -0.21875 -10.375 L -0.261719 -10.324219 L -0.230469 -10.085938 L -0.238281 -9.972656 L -0.175781 -9.738281 L -0.214844 -9.636719 L -0.167969 -9.417969 L -0.175781 -9.304688 L -0.175781 -9.046875 L -0.1875 -8.984375 L -0.171875 -8.777344 L -0.0507812 -8.640625 L -0.140625 -8.539062 L -0.0585938 -8.300781 L -0.0976562 -8.140625 L -0.0546875 -7.980469 L 0.0664062 -7.894531 L 0.09375 -7.703125 L 0.128906 -7.449219 L 0.117188 -7.382812 L 0.148438 -7.160156 L 0.175781 -7.003906 L 0.175781 -6.957031 L 0.222656 -6.78125 L 0.269531 -6.546875 L 0.277344 -6.417969 L 0.320312 -6.261719 L 0.332031 -6.117188 L 0.4375 -5.996094 L 0.566406 -5.746094 L 0.515625 -5.566406 L 0.644531 -5.511719 L 0.691406 -5.339844 L 0.636719 -5.207031 L 0.699219 -4.988281 L 0.855469 -4.820312 L 0.800781 -4.640625 L 0.816406 -4.644531 L 0.894531 -4.457031 L 1 -4.320312 L 1.097656 -4.085938 L 1.085938 -4.019531 L 1.144531 -3.878906 L 1.28125 -3.746094 L 1.359375 -3.558594 L 1.4375 -3.355469 L 1.457031 -3.292969 L 1.488281 -3.039062 L 1.652344 -3.015625 L 1.699219 -2.777344 L 1.730469 -2.589844 L 1.738281 -2.460938 L 1.921875 -2.378906 L 1.992188 -2.285156 L 1.96875 -2.125 L 2.121094 -2.007812 L 2.164062 -1.898438 L 2.296875 -1.777344 L 2.390625 -1.59375 L 2.386719 -1.449219 L 2.570312 -1.332031 L 2.695312 -1.132812 L 2.773438 -0.960938 L 2.984375 -0.894531 L 3.0625 -0.917969 Z M 3.332031 -0.757812 "/></g></g></g><g fill="#000000" fill-opacity="1"><g transform="translate(190.115004, 165.783101)"><g><path d="M 2.074219 -0.625 L 2.335938 -0.785156 L 2.5625 -0.738281 L 2.734375 -0.78125 L 2.847656 -0.773438 L 3.066406 -0.886719 L 3.1875 -0.988281 L 3.359375 -1.050781 L 3.449219 -1.121094 L 3.566406 -1.097656 L 3.683594 -1.199219 L 3.785156 -1.398438 L 3.890625 -1.457031 L 4.066406 -1.484375 L 4.171875 -1.601562 L 4.421875 -1.683594 L 4.382812 -1.761719 L 4.542969 -2.027344 L 4.710938 -2.121094 L 4.871094 -2.132812 L 4.839844 -2.386719 L 4.996094 -2.398438 L 5.132812 -2.535156 L 5.128906 -2.613281 L 5.367188 -2.855469 L 5.3125 -2.949219 L 5.542969 -3.078125 L 5.507812 -3.171875 L 5.609375 -3.289062 L 5.742188 -3.441406 L 5.8125 -3.625 L 5.863281 -3.804688 L 6 -3.910156 L 6.027344 -4.007812 L 6.140625 -4.175781 L 6.191406 -4.417969 L 6.214844 -4.5 L 6.265625 -4.714844 L 6.324219 -4.765625 L 6.460938 -4.886719 L 6.464844 -5.082031 L 6.597656 -5.234375 L 6.648438 -5.429688 L 6.636719 -5.589844 L 6.738281 -5.742188 L 6.847656 -5.8125 L 6.894531 -6.054688 L 6.808594 -6.113281 L 6.976562 -6.238281 L 6.921875 -6.378906 L 6.933594 -6.652344 L 6.972656 -6.78125 L 7.007812 -6.992188 L 7.082031 -7.0625 L 7.230469 -7.25 L 7.179688 -7.472656 L 7.191406 -7.535156 L 7.195312 -7.726562 L 7.316406 -7.863281 L 7.253906 -8.070312 L 7.34375 -8.140625 L 7.375 -8.398438 L 7.4375 -8.644531 L 7.402344 -8.898438 L 7.335938 -8.957031 L 7.453125 -9.09375 L 7.472656 -9.285156 L 7.5 -9.578125 L 7.425781 -9.734375 L 7.457031 -9.78125 L 7.355469 -10.046875 L 7.484375 -10.074219 L 7.5 -10.300781 L 7.359375 -10.464844 L 7.417969 -10.566406 L 7.351562 -10.800781 L 7.328125 -10.929688 L 7.328125 -11.167969 L 7.261719 -11.210938 L 7.148438 -11.445312 L 7.152344 -11.621094 L 7.035156 -11.679688 L 6.972656 -11.867188 L 6.917969 -11.976562 L 6.929688 -12.070312 L 6.761719 -12.171875 L 6.664062 -12.421875 L 6.578125 -12.496094 L 6.460938 -12.570312 L 6.265625 -12.585938 L 6.195312 -12.679688 L 6.011719 -12.824219 L 5.925781 -12.882812 L 5.777344 -12.921875 L 5.527344 -12.855469 L 5.394531 -12.929688 L 5.277344 -12.96875 L 5.050781 -13.015625 L 4.890625 -13.023438 L 4.671875 -12.910156 L 4.433594 -12.878906 L 4.40625 -12.84375 L 4.222656 -12.925781 L 4.105469 -12.789062 L 3.832031 -12.773438 L 3.664062 -12.648438 L 3.570312 -12.609375 L 3.476562 -12.601562 L 3.28125 -12.414062 L 3.136719 -12.433594 L 2.96875 -12.28125 L 2.894531 -12.226562 L 2.800781 -12.15625 L 2.652344 -12.015625 L 2.496094 -11.941406 L 2.460938 -11.746094 L 2.277344 -11.605469 L 2.222656 -11.492188 L 2.132812 -11.386719 L 2.007812 -11.332031 L 1.980469 -11.25 L 1.765625 -11.105469 L 1.71875 -10.863281 L 1.628906 -10.777344 L 1.523438 -10.6875 L 1.441406 -10.507812 L 1.359375 -10.261719 L 1.417969 -10.121094 L 1.296875 -10 L 1.222656 -9.929688 L 1.21875 -9.753906 L 1.042969 -9.515625 L 1.035156 -9.421875 L 0.992188 -9.320312 L 0.890625 -9.1875 L 0.890625 -8.945312 L 0.820312 -8.8125 L 0.777344 -8.710938 L 0.726562 -8.550781 L 0.691406 -8.339844 L 0.609375 -8.15625 L 0.679688 -8.066406 L 0.5625 -7.914062 L 0.605469 -7.722656 L 0.5625 -7.625 L 0.5 -7.410156 L 0.34375 -7.320312 L 0.4375 -7.148438 L 0.308594 -6.917969 L 0.25 -6.816406 L 0.265625 -6.382812 L 0.171875 -6.347656 L 0.207031 -6.042969 L 0.132812 -5.972656 L 0.128906 -5.78125 L 0.0898438 -5.652344 L 0.210938 -5.546875 L 0.0859375 -5.265625 L 0.109375 -5.171875 L 0.00390625 -5.035156 L 0.132812 -4.804688 L 0.0507812 -4.605469 L 0.015625 -4.394531 L 0.0546875 -4.316406 L 0.0234375 -4.089844 L 0.0742188 -4.015625 L -0.0351562 -3.75 L 0.0664062 -3.675781 L 0.0351562 -3.433594 L 0.015625 -3.257812 L 0.0742188 -3.101562 L 0.0507812 -2.984375 L 0.160156 -2.800781 L 0.121094 -2.636719 L 0.148438 -2.511719 L 0.160156 -2.304688 L 0.285156 -2.121094 L 0.210938 -2.066406 L 0.335938 -1.851562 L 0.441406 -1.746094 L 0.5 -1.574219 L 0.554688 -1.496094 L 0.648438 -1.28125 L 0.816406 -1.164062 L 0.882812 -1.152344 L 1.019531 -1.015625 L 1.132812 -1.007812 L 1.128906 -0.832031 L 1.269531 -0.890625 L 1.519531 -0.746094 L 1.679688 -0.742188 L 1.703125 -0.664062 L 1.949219 -0.777344 Z M 2.4375 -1.867188 L 2.074219 -1.792969 L 1.859375 -1.84375 L 1.738281 -1.980469 L 1.6875 -2.023438 L 1.585938 -2.113281 L 1.441406 -2.34375 L 1.421875 -2.421875 L 1.394531 -2.566406 L 1.359375 -2.867188 L 1.316406 -3.007812 L 1.273438 -3.167969 L 1.21875 -3.242188 L 1.207031 -3.449219 L 1.179688 -3.578125 L 1.183594 -3.785156 L 1.242188 -3.855469 L 1.152344 -4.007812 L 1.285156 -4.160156 L 1.253906 -4.367188 L 1.164062 -4.523438 L 1.203125 -4.636719 L 1.269531 -4.851562 L 1.210938 -5.007812 L 1.34375 -5.160156 L 1.367188 -5.304688 L 1.285156 -5.558594 L 1.355469 -5.691406 L 1.425781 -5.855469 L 1.390625 -5.902344 L 1.453125 -6.128906 L 1.414062 -6.449219 L 1.503906 -6.550781 L 1.589844 -6.699219 L 1.5625 -6.875 L 1.625 -7.152344 L 1.679688 -7.234375 L 1.714844 -7.445312 L 1.777344 -7.5 L 1.761719 -7.722656 L 1.765625 -7.898438 L 1.882812 -8.050781 L 1.921875 -8.183594 L 1.953125 -8.441406 L 1.941406 -8.585938 L 2.03125 -8.65625 L 2.085938 -8.789062 L 2.175781 -8.90625 L 2.128906 -9.144531 L 2.167969 -9.257812 L 2.28125 -9.441406 L 2.398438 -9.640625 L 2.40625 -9.722656 L 2.496094 -9.839844 L 2.578125 -10.070312 L 2.605469 -10.136719 L 2.796875 -10.359375 L 2.84375 -10.378906 L 2.894531 -10.574219 L 3 -10.644531 L 3.070312 -10.796875 L 3.210938 -10.851562 L 3.339844 -11.085938 L 3.429688 -11.1875 L 3.511719 -11.164062 L 3.621094 -11.410156 L 3.703125 -11.398438 L 3.875 -11.445312 L 3.992188 -11.628906 L 4.230469 -11.675781 L 4.335938 -11.75 L 4.496094 -11.742188 L 4.609375 -11.734375 L 4.761719 -11.875 L 4.847656 -11.800781 L 5.164062 -11.820312 L 5.34375 -11.816406 L 5.570312 -11.753906 L 5.691406 -11.648438 L 5.804688 -11.609375 L 5.828125 -11.515625 L 5.875 -11.324219 L 5.964844 -11.15625 L 6.171875 -10.976562 L 6.140625 -10.925781 L 6.136719 -10.734375 L 6.277344 -10.566406 L 6.175781 -10.449219 L 6.199219 -10.304688 L 6.199219 -10.097656 L 6.292969 -9.878906 L 6.285156 -9.765625 L 6.308594 -9.65625 L 6.308594 -9.429688 L 6.316406 -9.335938 L 6.332031 -9.113281 L 6.191406 -9.023438 L 6.238281 -8.847656 L 6.140625 -8.410156 L 6.191406 -8.332031 L 6.0625 -8.148438 L 6.058594 -7.921875 L 6.023438 -7.777344 L 6.042969 -7.730469 L 5.945312 -7.515625 L 5.925781 -7.335938 L 5.839844 -7.152344 L 5.945312 -7.046875 L 5.835938 -6.960938 L 5.839844 -6.6875 L 5.796875 -6.621094 L 5.683594 -6.40625 L 5.597656 -6.238281 L 5.578125 -6.09375 L 5.550781 -6.027344 L 5.546875 -5.835938 L 5.46875 -5.574219 L 5.296875 -5.496094 L 5.351562 -5.421875 L 5.191406 -5.183594 L 5.203125 -5.007812 L 5.03125 -4.949219 L 4.960938 -4.816406 L 4.875 -4.648438 L 4.921875 -4.445312 L 4.851562 -4.261719 L 4.664062 -4.234375 L 4.703125 -4.09375 L 4.574219 -3.890625 L 4.441406 -3.738281 L 4.355469 -3.554688 L 4.28125 -3.503906 L 4.160156 -3.367188 L 4.058594 -3.246094 L 4.003906 -3.082031 L 3.921875 -2.898438 L 3.769531 -2.777344 L 3.761719 -2.648438 L 3.585938 -2.636719 L 3.542969 -2.554688 L 3.359375 -2.429688 L 3.191406 -2.335938 L 3.136719 -2.15625 L 2.996094 -2.148438 L 2.90625 -2.027344 L 2.703125 -1.933594 L 2.644531 -1.882812 Z M 2.4375 -1.867188 "/></g></g></g><g fill="#000000" fill-opacity="1"><g transform="translate(203.74457, 164.84278)"><g><path d="M 10.585938 0.953125 L 10.296875 0.75 L 10.15625 0.773438 L 9.972656 0.660156 L 9.769531 0.511719 L 9.6875 0.46875 L 9.46875 0.339844 L 9.441406 0.390625 L 9.21875 0.183594 L 9.171875 0.234375 L 9 0.0351562 L 8.886719 0.0585938 L 8.769531 -0.0273438 L 8.519531 -0.140625 L 8.40625 -0.179688 L 8.199219 -0.390625 L 8.070312 -0.414062 L 7.941406 -0.402344 L 7.914062 -0.546875 L 7.808594 -0.683594 L 7.660156 -0.785156 L 7.507812 -0.871094 L 7.277344 -0.96875 L 7.164062 -0.960938 L 7.140625 -1.117188 L 6.875 -1.226562 L 6.761719 -1.21875 L 6.71875 -1.394531 L 6.523438 -1.460938 L 6.386719 -1.578125 L 6.335938 -1.609375 L 6.125 -1.65625 L 5.976562 -1.902344 L 5.957031 -1.984375 L 5.742188 -2.078125 L 5.621094 -2.183594 L 5.535156 -2.289062 L 5.34375 -2.246094 L 5.273438 -2.382812 L 5.136719 -2.457031 L 5.089844 -2.675781 L 4.925781 -2.730469 L 4.8125 -2.753906 L 4.675781 -2.886719 L 4.585938 -3.027344 L 4.503906 -3.054688 L 4.257812 -3.148438 L 4.117188 -3.296875 L 4.113281 -3.394531 L 4.015625 -3.628906 L 3.898438 -3.683594 L 3.640625 -3.714844 L 3.582031 -3.886719 L 3.433594 -3.941406 L 3.347656 -4.03125 L 3.285156 -4.203125 L 3.058594 -4.234375 L 2.953125 -4.390625 L 2.960938 -4.519531 L 2.769531 -4.695312 L 2.699219 -4.820312 L 2.539062 -4.777344 L 2.5625 -5.148438 L 2.640625 -5.203125 L 2.722656 -5.367188 L 2.867188 -5.378906 L 3.007812 -5.46875 L 3.183594 -5.703125 L 3.320312 -5.808594 L 3.300781 -5.855469 L 3.5 -6 L 3.523438 -6.128906 L 3.757812 -6.175781 L 3.800781 -6.292969 L 3.945312 -6.492188 L 3.980469 -6.449219 L 4.21875 -6.707031 L 4.328125 -6.761719 L 4.316406 -6.90625 L 4.425781 -6.976562 L 4.570312 -7.179688 L 4.667969 -7.167969 L 4.78125 -7.402344 L 4.90625 -7.441406 L 5.078125 -7.519531 L 5.113281 -7.679688 L 5.1875 -7.8125 L 5.410156 -8.039062 L 5.527344 -8.191406 L 5.648438 -8.3125 L 5.777344 -8.527344 L 5.800781 -8.660156 L 5.886719 -8.792969 L 6.042969 -8.851562 L 6.097656 -9 L 6.179688 -9.183594 L 6.285156 -9.316406 L 6.3125 -9.382812 L 6.457031 -9.601562 L 6.46875 -9.683594 L 6.542969 -9.769531 L 6.628906 -9.917969 L 6.695312 -10.097656 L 6.746094 -10.277344 L 6.707031 -10.40625 L 6.757812 -10.570312 L 6.828125 -10.734375 L 6.820312 -10.84375 L 6.804688 -11.070312 L 6.78125 -11.195312 L 6.773438 -11.324219 L 6.738281 -11.5625 L 6.832031 -11.632812 L 6.800781 -11.855469 L 6.632812 -11.9375 L 6.5625 -12.285156 L 6.488281 -12.425781 L 6.417969 -12.5 L 6.328125 -12.65625 L 6.304688 -12.765625 L 6.152344 -12.867188 L 6.015625 -12.988281 L 5.789062 -13.035156 L 5.710938 -13.238281 L 5.59375 -13.277344 L 5.375 -13.230469 L 5.257812 -13.289062 L 5.097656 -13.261719 L 4.949219 -13.347656 L 4.707031 -13.34375 L 4.679688 -13.3125 L 4.476562 -13.425781 L 4.324219 -13.320312 L 4.117188 -13.289062 L 3.972656 -13.296875 L 3.796875 -13.300781 L 3.59375 -13.203125 L 3.308594 -13.183594 L 3.238281 -13.019531 L 3.015625 -12.988281 L 2.804688 -13.039062 L 2.71875 -12.871094 L 2.652344 -12.898438 L 2.4375 -12.773438 L 2.355469 -12.589844 L 2.144531 -12.640625 L 2.058594 -12.457031 L 1.886719 -12.414062 L 1.707031 -12.207031 L 1.570312 -12.117188 L 1.566406 -12.167969 L 1.421875 -11.949219 L 1.246094 -11.9375 L 1.085938 -11.699219 L 0.953125 -11.722656 L 0.921875 -11.496094 L 0.851562 -11.378906 L 0.613281 -11.347656 L 0.617188 -11.300781 L 0.484375 -11.082031 L 0.296875 -11.035156 L 0.226562 -10.902344 L 0.078125 -10.75 L -0.078125 -10.417969 L -0.269531 -10.421875 L -0.335938 -10.207031 L -0.457031 -10.117188 L -0.476562 -9.941406 L -0.441406 -9.863281 L -0.515625 -9.570312 L -0.296875 -9.390625 L -0.210938 -9.316406 L -0.203125 -9.222656 L -0.0390625 -9.152344 L 0.234375 -9.171875 L 0.25 -9.367188 L 0.515625 -9.496094 L 0.710938 -9.703125 L 0.734375 -9.832031 L 0.875 -9.84375 L 0.992188 -10.042969 L 0.996094 -10.1875 L 1.261719 -10.316406 L 1.351562 -10.421875 L 1.476562 -10.445312 L 1.46875 -10.554688 L 1.691406 -10.796875 L 1.773438 -10.769531 L 1.84375 -10.917969 L 2.011719 -11.058594 L 2.183594 -11.136719 L 2.320312 -11.207031 L 2.355469 -11.386719 L 2.433594 -11.425781 L 2.664062 -11.601562 L 2.691406 -11.683594 L 2.875 -11.808594 L 3.046875 -11.851562 L 3.214844 -11.960938 L 3.375 -11.972656 L 3.386719 -12.035156 L 3.523438 -12.140625 L 3.722656 -12.058594 L 4.070312 -12.132812 L 4.226562 -12.207031 L 4.386719 -12.199219 L 4.554688 -12.324219 L 4.675781 -12.203125 L 4.816406 -12.214844 L 5.0625 -12.167969 L 5.15625 -12.191406 L 5.246094 -12.050781 L 5.296875 -11.992188 L 5.4375 -11.824219 L 5.578125 -11.671875 L 5.636719 -11.484375 L 5.742188 -11.378906 L 5.617188 -11.082031 L 5.707031 -10.945312 L 5.632812 -10.859375 L 5.652344 -10.605469 L 5.5625 -10.503906 L 5.507812 -10.371094 L 5.441406 -10.15625 L 5.511719 -10.050781 L 5.355469 -10.007812 L 5.253906 -9.824219 L 5.199219 -9.722656 L 5.160156 -9.578125 L 5.105469 -9.414062 L 4.910156 -9.253906 L 4.933594 -9.128906 L 4.769531 -8.941406 L 4.730469 -8.824219 L 4.59375 -8.703125 L 4.566406 -8.652344 L 4.300781 -8.316406 L 4.230469 -8.199219 L 4.011719 -8.085938 L 3.957031 -7.953125 L 3.847656 -7.929688 L 3.824219 -7.785156 L 3.691406 -7.597656 L 3.585938 -7.542969 L 3.449219 -7.40625 L 3.300781 -7.25 L 3.289062 -7.171875 L 3.148438 -7.113281 L 3.015625 -6.960938 L 2.804688 -6.734375 L 2.792969 -6.703125 L 2.703125 -6.617188 L 2.558594 -6.382812 L 2.402344 -6.324219 L 2.253906 -6.167969 L 2.117188 -6.03125 L 1.996094 -6.167969 L 2.066406 -6.316406 L 1.980469 -6.40625 L 2.007812 -6.664062 L 2 -6.777344 L 2.003906 -6.984375 L 2.015625 -7.050781 L 1.953125 -7.269531 L 2.023438 -7.386719 L 2.070312 -7.632812 L 2.03125 -7.773438 L 1.941406 -7.863281 L 1.945312 -8.085938 L 2.011719 -8.253906 L 2.015625 -8.460938 L 2.007812 -8.523438 L 2.03125 -8.65625 L 1.886719 -8.886719 L 1.972656 -9.082031 L 1.90625 -9.109375 L 1.9375 -9.355469 L 1.886719 -9.625 L 1.8125 -9.730469 L 1.753906 -9.933594 L 1.777344 -10.03125 L 1.660156 -10.105469 L 1.40625 -10.28125 L 1.242188 -10.09375 L 1.054688 -10.0625 L 0.996094 -9.980469 L 0.808594 -9.871094 L 0.902344 -9.683594 L 0.90625 -9.394531 L 0.875 -9.167969 L 0.832031 -9.101562 L 0.859375 -8.941406 L 0.921875 -8.738281 L 0.90625 -8.496094 L 0.84375 -8.476562 L 0.886719 -8.304688 L 0.835938 -8.125 L 0.832031 -7.945312 L 0.871094 -7.820312 L 0.964844 -7.652344 L 0.875 -7.515625 L 0.878906 -7.261719 L 0.882812 -7.164062 L 0.945312 -6.960938 L 0.898438 -6.734375 L 0.875 -6.585938 L 0.921875 -6.398438 L 1.019531 -6.386719 L 0.957031 -6.113281 L 0.886719 -5.976562 L 0.992188 -5.855469 L 0.992188 -5.632812 L 0.980469 -5.566406 L 0.960938 -5.34375 L 1 -5.25 L 0.871094 -5.046875 L 0.988281 -4.992188 L 0.984375 -4.8125 L 0.882812 -4.632812 L 0.988281 -4.476562 L 0.914062 -4.199219 L 0.90625 -4.039062 L 0.933594 -3.882812 L 0.941406 -3.785156 L 0.996094 -3.675781 L 1.011719 -3.46875 L 0.960938 -3.257812 L 1 -3.148438 L 0.949219 -2.984375 L 0.863281 -2.832031 L 0.917969 -2.726562 L 0.914062 -2.53125 L 0.914062 -2.339844 L 0.910156 -2.148438 L 0.972656 -1.941406 L 0.945312 -1.894531 L 0.828125 -1.726562 L 0.921875 -1.507812 L 0.964844 -1.347656 L 0.832031 -1.179688 L 0.824219 -1.066406 L 0.804688 -0.664062 L 0.976562 -0.5 L 0.921875 -0.367188 L 1.054688 -0.296875 L 1.152344 -0.238281 L 1.308594 -0.0742188 L 1.578125 -0.15625 L 1.792969 -0.285156 L 1.851562 -0.335938 L 1.90625 -0.515625 L 1.980469 -0.808594 L 1.980469 -1.066406 L 1.957031 -1.128906 L 1.996094 -1.308594 L 1.949219 -1.480469 L 1.984375 -1.675781 L 2.082031 -1.90625 L 2 -1.949219 L 2.046875 -2.160156 L 1.976562 -2.285156 L 2.039062 -2.515625 L 2.042969 -2.722656 L 2.023438 -2.769531 L 2.082031 -3.0625 L 1.992188 -3.183594 L 1.980469 -3.34375 L 2.03125 -3.554688 L 2.109375 -3.609375 L 2.164062 -3.757812 L 2.3125 -3.65625 L 2.339844 -3.480469 L 2.511719 -3.347656 L 2.601562 -3.226562 L 2.679688 -3.230469 L 2.789062 -3.046875 L 2.921875 -2.992188 L 3.109375 -2.828125 L 3.257812 -2.742188 L 3.351562 -2.554688 L 3.433594 -2.515625 L 3.589844 -2.347656 L 3.605469 -2.332031 L 3.835938 -2.253906 L 3.878906 -2.128906 L 4.003906 -1.960938 L 4.121094 -1.871094 L 4.316406 -1.820312 L 4.40625 -1.683594 L 4.558594 -1.566406 L 4.722656 -1.511719 L 4.839844 -1.457031 L 4.898438 -1.269531 L 5.019531 -1.179688 L 5.234375 -1.050781 L 5.222656 -0.984375 L 5.359375 -0.867188 L 5.609375 -0.753906 L 5.679688 -0.648438 L 5.746094 -0.636719 L 5.917969 -0.441406 L 5.996094 -0.476562 L 6.117188 -0.324219 L 6.269531 -0.222656 L 6.402344 -0.183594 L 6.691406 0.0664062 L 6.871094 0.101562 L 7.019531 0.171875 L 7.0625 0.332031 L 7.308594 0.410156 L 7.4375 0.402344 L 7.527344 0.585938 L 7.585938 0.695312 L 7.746094 0.730469 L 7.929688 0.816406 L 8.078125 0.871094 L 8.167969 0.992188 L 8.308594 0.980469 L 8.558594 1.109375 L 8.570312 1.285156 L 8.71875 1.355469 L 8.972656 1.304688 L 9.109375 1.390625 L 9.253906 1.429688 L 9.3125 1.570312 L 9.492188 1.605469 L 9.6875 1.65625 L 9.792969 1.808594 L 10.054688 1.871094 L 10.136719 1.914062 L 10.410156 1.910156 L 10.507812 1.953125 L 10.710938 1.875 L 10.871094 1.625 L 10.828125 1.433594 L 10.789062 1.148438 L 10.710938 1.136719 Z M 10.585938 0.953125 "/></g></g></g><g fill="#000000" fill-opacity="1"><g transform="translate(216.719845, 163.947599)"><g><path d="M 2.875 -0.390625 L 3.285156 -0.5 L 3.394531 -0.523438 L 3.472656 -0.59375 L 3.582031 -0.839844 L 3.691406 -1.136719 L 3.75 -1.1875 L 3.757812 -1.332031 L 3.660156 -1.550781 L 3.628906 -1.773438 L 3.671875 -1.890625 L 3.710938 -2.019531 L 3.648438 -2.175781 L 3.738281 -2.308594 L 3.753906 -2.550781 L 3.730469 -2.648438 L 3.6875 -2.820312 L 3.675781 -2.964844 L 3.703125 -3.269531 L 3.695312 -3.367188 L 3.652344 -3.539062 L 3.660156 -3.667969 L 3.765625 -3.773438 L 3.761719 -4.058594 L 3.800781 -4.191406 L 3.691406 -4.34375 L 3.785156 -4.414062 L 3.730469 -4.714844 L 3.792969 -4.769531 L 3.703125 -4.921875 L 3.761719 -5.183594 L 3.6875 -5.335938 L 3.664062 -5.449219 L 3.738281 -5.804688 L 3.714844 -5.917969 L 3.777344 -6.160156 L 3.660156 -6.457031 L 3.871094 -6.648438 L 3.886719 -6.890625 L 4.054688 -7.03125 L 4.09375 -7.160156 L 4.125 -7.132812 L 4.207031 -7.378906 L 4.417969 -7.554688 L 4.515625 -7.542969 L 4.480469 -7.796875 L 4.617188 -7.917969 L 4.800781 -8.042969 L 4.828125 -8.125 L 4.882812 -8.257812 L 5.078125 -8.449219 L 5.035156 -8.605469 L 5.25 -8.734375 L 5.203125 -8.730469 L 5.289062 -8.847656 L 5.511719 -9.105469 L 5.589844 -9.15625 L 5.683594 -9.421875 L 5.78125 -9.425781 L 5.851562 -9.574219 L 5.8125 -9.667969 L 6 -9.9375 L 6.046875 -9.972656 L 6.082031 -10.136719 L 6.183594 -10.304688 L 6.269531 -10.488281 L 6.425781 -10.53125 L 6.546875 -10.632812 L 6.472656 -10.789062 L 6.679688 -11.042969 L 6.710938 -11.0625 L 6.835938 -11.296875 L 6.835938 -11.3125 L 6.9375 -11.464844 L 7 -11.707031 L 7.074219 -11.824219 L 7.199219 -11.882812 L 7.257812 -12.160156 L 7.285156 -12.257812 L 7.421875 -12.347656 L 7.445312 -12.507812 L 7.589844 -12.726562 L 7.683594 -13.003906 L 7.769531 -13.125 L 7.695312 -13.296875 L 7.699219 -13.472656 L 7.550781 -13.507812 L 7.371094 -13.769531 L 7.050781 -13.78125 L 6.945312 -13.691406 L 6.816406 -13.476562 L 6.746094 -13.292969 L 6.511719 -13.019531 L 6.417969 -12.933594 L 6.367188 -12.785156 L 6.289062 -12.71875 L 6.25 -12.585938 L 6.050781 -12.25 L 6.011719 -12.105469 L 5.914062 -11.890625 L 5.855469 -11.835938 L 5.78125 -11.71875 L 5.683594 -11.503906 L 5.609375 -11.453125 L 5.457031 -11.3125 L 5.488281 -11.074219 L 5.414062 -11.035156 L 5.328125 -10.871094 L 5.230469 -10.671875 L 5.121094 -10.617188 L 5.03125 -10.511719 L 4.960938 -10.378906 L 4.824219 -10.242188 L 4.84375 -9.972656 L 4.644531 -9.828125 L 4.539062 -9.726562 L 4.46875 -9.59375 L 4.472656 -9.527344 L 4.34375 -9.34375 L 4.328125 -9.292969 L 4.214844 -9.109375 L 4.144531 -8.960938 L 4.089844 -8.8125 L 3.925781 -8.640625 L 3.824219 -8.507812 L 3.761719 -8.484375 L 3.707031 -8.320312 L 3.636719 -8.15625 L 3.554688 -7.992188 L 3.386719 -7.882812 L 3.261719 -7.808594 L 3.128906 -7.640625 L 3.011719 -7.695312 L 2.929688 -7.722656 L 2.851562 -7.925781 L 2.683594 -8.042969 L 2.648438 -8.105469 L 2.496094 -8.207031 L 2.40625 -8.34375 L 2.238281 -8.476562 L 2.238281 -8.667969 L 2.078125 -8.675781 L 2.015625 -8.894531 L 1.929688 -8.984375 L 1.839844 -9.140625 L 1.730469 -9.324219 L 1.613281 -9.410156 L 1.523438 -9.519531 L 1.410156 -9.558594 L 1.375 -9.8125 L 1.199219 -9.832031 L 1.203125 -9.992188 L 1.058594 -10.207031 L 0.945312 -10.246094 L 0.773438 -10.394531 L 0.734375 -10.523438 L 0.648438 -10.597656 L 0.570312 -10.800781 L 0.433594 -10.933594 L 0.375 -11.042969 L 0.300781 -11.214844 L 0.113281 -11.378906 L 0.0351562 -11.578125 L -0.210938 -11.660156 L -0.40625 -11.710938 L -0.738281 -11.605469 L -0.867188 -11.40625 L -0.8125 -11.328125 L -0.898438 -11.179688 L -0.667969 -10.84375 L -0.628906 -10.765625 L -0.457031 -10.601562 L -0.433594 -10.472656 L -0.28125 -10.339844 L -0.320312 -10.207031 L -0.179688 -10.042969 L -0.125 -9.933594 L 0.0820312 -9.738281 L 0.121094 -9.613281 L 0.257812 -9.496094 L 0.273438 -9.289062 L 0.46875 -9.222656 L 0.492188 -9.125 L 0.546875 -9.035156 L 0.734375 -8.902344 L 0.734375 -8.660156 L 0.945312 -8.628906 L 0.9375 -8.5 L 1.109375 -8.335938 L 1.136719 -8.160156 L 1.269531 -8.074219 L 1.4375 -7.988281 L 1.472656 -7.734375 L 1.625 -7.617188 L 1.722656 -7.589844 L 1.847656 -7.359375 L 1.964844 -7.289062 L 1.972656 -7.191406 L 2.109375 -7.089844 L 2.148438 -6.996094 L 2.382812 -6.820312 L 2.359375 -6.707031 L 2.527344 -6.605469 L 2.640625 -6.324219 L 2.609375 -6.097656 L 2.636719 -5.9375 L 2.671875 -5.878906 L 2.722656 -5.609375 L 2.714844 -5.527344 L 2.609375 -5.199219 L 2.625 -4.976562 L 2.695312 -4.882812 L 2.609375 -4.6875 L 2.652344 -4.5625 L 2.667969 -4.304688 L 2.675781 -4.210938 L 2.625 -4.03125 L 2.632812 -3.933594 L 2.722656 -3.765625 L 2.679688 -3.488281 L 2.574219 -3.351562 L 2.613281 -3.273438 L 2.679688 -3.023438 L 2.6875 -2.894531 L 2.566406 -2.808594 L 2.59375 -2.601562 L 2.65625 -2.414062 L 2.597656 -2.328125 L 2.695312 -2.078125 L 2.574219 -1.988281 L 2.6875 -1.726562 L 2.617188 -1.589844 L 2.617188 -1.367188 L 2.546875 -1.21875 L 2.5625 -1.1875 L 2.652344 -0.855469 L 2.6875 -0.585938 L 2.703125 -0.539062 Z M 2.875 -0.390625 "/></g></g></g><g fill="#000000" fill-opacity="1"><g transform="translate(164.29827, 249.690241)"><g><path d="M 3.222656 -0.984375 L 3.429688 -0.65625 L 3.542969 -0.582031 L 3.769531 -0.527344 L 3.960938 -0.601562 L 4.164062 -0.675781 L 4.277344 -0.664062 L 4.507812 -0.835938 L 4.726562 -0.957031 L 4.871094 -1.011719 L 5.027344 -1.097656 L 5.167969 -1.105469 L 5.242188 -1.269531 L 5.394531 -1.40625 L 5.523438 -1.378906 L 5.738281 -1.597656 L 5.878906 -1.667969 L 5.890625 -1.75 L 6.03125 -1.851562 L 6.171875 -1.90625 L 6.261719 -2.039062 L 6.449219 -2.140625 L 6.519531 -2.355469 L 6.597656 -2.40625 L 6.71875 -2.570312 L 6.835938 -2.800781 L 6.820312 -2.832031 L 6.953125 -3.0625 L 6.964844 -3.144531 L 7.003906 -3.320312 L 7.046875 -3.417969 L 6.96875 -3.769531 L 6.878906 -3.972656 L 6.917969 -4.117188 L 6.851562 -4.195312 L 6.714844 -4.398438 L 6.691406 -4.492188 L 6.511719 -4.5625 L 6.394531 -4.703125 L 6.265625 -4.761719 L 6.207031 -4.980469 L 6.125 -4.976562 L 5.972656 -5.148438 L 5.761719 -5.203125 L 5.648438 -5.242188 L 5.550781 -5.273438 L 5.433594 -5.378906 L 5.300781 -5.515625 L 5.160156 -5.445312 L 4.945312 -5.578125 L 4.8125 -5.636719 L 4.574219 -5.625 L 4.519531 -5.734375 L 4.160156 -5.910156 L 4.03125 -5.90625 L 3.9375 -5.886719 L 3.660156 -6 L 3.5625 -5.996094 L 3.367188 -6.113281 L 3.363281 -6.179688 L 3.0625 -6.132812 L 2.992188 -6.242188 L 2.710938 -6.402344 L 2.582031 -6.414062 L 2.40625 -6.46875 L 2.179688 -6.523438 L 2.144531 -6.554688 L 1.9375 -6.558594 L 1.789062 -6.664062 L 1.589844 -6.800781 L 1.589844 -6.816406 L 1.332031 -6.835938 L 1.339844 -6.996094 L 1.207031 -7.070312 L 1.054688 -7.238281 L 0.921875 -7.394531 L 0.949219 -7.492188 L 0.816406 -7.582031 L 0.867188 -7.871094 L 0.824219 -8.109375 L 0.878906 -8.289062 L 1.019531 -8.390625 L 1.121094 -8.554688 L 1.246094 -8.65625 L 1.289062 -8.789062 L 1.421875 -9.003906 L 1.5 -9.023438 L 1.539062 -9.214844 L 1.601562 -9.285156 L 1.691406 -9.429688 L 1.8125 -9.550781 L 1.9375 -9.652344 L 2.089844 -9.785156 L 2.132812 -9.933594 L 2.347656 -10.085938 L 2.359375 -10.167969 L 2.515625 -10.253906 L 2.703125 -10.359375 L 2.855469 -10.527344 L 2.851562 -10.589844 L 3.074219 -10.679688 L 3.152344 -10.714844 L 3.320312 -10.867188 L 3.472656 -11.066406 L 3.722656 -11.144531 L 3.859375 -11.359375 L 3.988281 -11.347656 L 4.09375 -11.480469 L 4.121094 -11.53125 L 4.265625 -11.570312 L 4.433594 -11.769531 L 4.511719 -11.789062 L 4.734375 -11.800781 L 4.933594 -11.984375 L 4.996094 -12.019531 L 5.171875 -12.011719 L 5.234375 -12.09375 L 5.457031 -12.105469 L 5.660156 -12.210938 L 5.917969 -12.160156 L 6.117188 -12.070312 L 6.191406 -11.835938 L 6.339844 -11.730469 L 6.375 -11.667969 L 6.441406 -11.300781 L 6.605469 -11.148438 L 6.785156 -11.109375 L 6.867188 -11.082031 L 7.226562 -11.257812 L 7.234375 -11.402344 L 7.378906 -11.457031 L 7.445312 -11.75 L 7.476562 -11.765625 L 7.261719 -12.191406 L 7.320312 -12.367188 L 7.265625 -12.460938 L 7.054688 -12.53125 L 6.953125 -12.640625 L 6.960938 -12.800781 L 6.863281 -12.875 L 6.730469 -12.980469 L 6.496094 -13.148438 L 6.445312 -13.222656 L 6.285156 -13.234375 L 6.125 -13.210938 L 5.929688 -13.28125 L 5.566406 -13.214844 L 5.449219 -13.289062 L 5.230469 -13.152344 L 5.097656 -13.257812 L 4.929688 -13.074219 L 4.847656 -13.167969 L 4.679688 -12.964844 L 4.453125 -13.019531 L 4.347656 -12.871094 L 4.28125 -12.898438 L 4.082031 -12.714844 L 3.859375 -12.734375 L 3.816406 -12.621094 L 3.691406 -12.519531 L 3.425781 -12.410156 L 3.328125 -12.390625 L 3.164062 -12.191406 L 3.164062 -12.207031 L 2.929688 -12.019531 L 2.785156 -12.046875 L 2.507812 -11.839844 L 2.519531 -11.601562 L 2.296875 -11.507812 L 2.207031 -11.410156 L 2.097656 -11.324219 L 1.972656 -11.253906 L 1.886719 -11.089844 L 1.691406 -11.097656 L 1.511719 -10.847656 L 1.402344 -10.78125 L 1.347656 -10.617188 L 1.222656 -10.546875 L 1.085938 -10.394531 L 1.023438 -10.296875 L 0.851562 -10.273438 L 0.730469 -10.074219 L 0.65625 -9.929688 L 0.554688 -9.761719 L 0.460938 -9.679688 L 0.449219 -9.597656 L 0.285156 -9.367188 L 0.226562 -9.21875 L 0.101562 -9.164062 L 0.0117188 -9.050781 L -0.046875 -8.886719 L -0.0195312 -8.664062 L -0.1875 -8.527344 L -0.140625 -8.480469 L -0.292969 -8.347656 L -0.1875 -8.144531 L -0.277344 -7.980469 L -0.253906 -7.851562 L -0.253906 -7.5 L -0.21875 -7.40625 L -0.238281 -7.210938 L -0.125 -7.105469 L -0.0703125 -6.980469 L -0.109375 -6.800781 L 0.03125 -6.566406 L 0.191406 -6.527344 L 0.167969 -6.398438 L 0.429688 -6.265625 L 0.429688 -6.203125 L 0.5625 -6.128906 L 0.710938 -6.023438 L 0.847656 -5.851562 L 1.074219 -5.816406 L 1.144531 -5.691406 L 1.351562 -5.714844 L 1.453125 -5.578125 L 1.5625 -5.628906 L 1.714844 -5.429688 L 1.785156 -5.351562 L 1.976562 -5.359375 L 2.214844 -5.386719 L 2.238281 -5.230469 L 2.609375 -5.148438 L 2.722656 -5.15625 L 2.933594 -5.117188 L 3.179688 -5 L 3.242188 -5.003906 L 3.460938 -4.804688 L 3.574219 -4.761719 L 3.765625 -4.804688 L 3.945312 -4.667969 L 4.074219 -4.707031 L 4.328125 -4.6875 L 4.484375 -4.46875 L 4.53125 -4.472656 L 4.777344 -4.386719 L 4.9375 -4.347656 L 5 -4.363281 L 5.203125 -4.199219 L 5.347656 -4.1875 L 5.542969 -4.117188 L 5.65625 -4.042969 L 5.644531 -3.996094 L 5.808594 -3.890625 L 5.8125 -3.777344 L 5.832031 -3.410156 L 5.757812 -3.230469 L 5.808594 -3.203125 L 5.640625 -3 L 5.546875 -2.933594 L 5.503906 -2.835938 L 5.308594 -2.601562 L 5.261719 -2.582031 L 5.136719 -2.449219 L 4.90625 -2.3125 L 4.8125 -2.242188 L 4.71875 -2.191406 L 4.589844 -2.167969 L 4.375 -1.996094 L 4.328125 -1.996094 L 4.144531 -1.828125 L 4.078125 -1.824219 L 3.972656 -1.660156 L 3.851562 -1.574219 L 3.660156 -1.546875 L 3.316406 -1.355469 L 3.320312 -1.292969 L 3.296875 -1.113281 Z M 3.222656 -0.984375 "/></g></g></g><g fill="#000000" fill-opacity="1"><g transform="translate(177.434082, 249.077781)"><g><path d="M 9.566406 -13.980469 L 9.285156 -13.773438 L 9.066406 -13.683594 L 8.988281 -13.648438 L 8.964844 -13.503906 L 8.929688 -13.179688 L 8.957031 -12.972656 L 8.910156 -12.921875 L 8.886719 -12.730469 L 8.925781 -12.570312 L 8.972656 -12.300781 L 8.863281 -12.183594 L 8.953125 -12.027344 L 8.8125 -11.925781 L 8.855469 -11.671875 L 8.800781 -11.507812 L 8.789062 -11.363281 L 8.847656 -11.191406 L 8.855469 -11.03125 L 8.730469 -10.914062 L 8.863281 -10.855469 L 8.789062 -10.691406 L 8.707031 -10.382812 L 8.808594 -10.277344 L 8.800781 -10.082031 L 8.691406 -10.046875 L 8.703125 -9.839844 L 8.628906 -9.675781 L 8.683594 -9.5 L 8.691406 -9.390625 L 8.585938 -9.222656 L 8.527344 -9.09375 L 8.535156 -8.917969 L 8.546875 -8.726562 L 8.503906 -8.5625 L 8.53125 -8.339844 L 8.457031 -8.210938 L 8.480469 -8.019531 L 8.425781 -7.855469 L 8.429688 -7.761719 L 8.46875 -7.585938 L 8.382812 -7.375 L 8.3125 -7.195312 L 8.3125 -7.160156 L 8.261719 -6.902344 L 8.347656 -6.828125 L 8.304688 -6.664062 L 8.28125 -6.503906 L 8.210938 -6.246094 L 8.265625 -6.183594 L 8.144531 -5.953125 L 8.117188 -5.871094 L 8.179688 -5.617188 L 8.152344 -5.488281 L 8.128906 -5.296875 L 8.097656 -5.277344 L 8.007812 -5.128906 L 7.941406 -4.886719 L 7.914062 -4.710938 L 7.957031 -4.503906 L 7.941406 -4.46875 L 7.84375 -4.210938 L 7.878906 -4.164062 L 7.789062 -3.984375 L 7.765625 -3.773438 L 7.726562 -3.578125 L 7.703125 -3.417969 L 7.773438 -3.339844 L 7.636719 -3.175781 L 7.597656 -2.949219 L 7.558594 -2.769531 L 7.523438 -2.863281 L 7.449219 -3.023438 L 7.433594 -3.054688 L 7.308594 -3.335938 L 7.253906 -3.429688 L 7.265625 -3.558594 L 7.132812 -3.648438 L 7.105469 -3.855469 L 7.003906 -4.042969 L 7.046875 -4.125 L 7.019531 -4.332031 L 6.824219 -4.402344 L 6.769531 -4.589844 L 6.839844 -4.785156 L 6.671875 -4.921875 L 6.765625 -4.992188 L 6.675781 -5.242188 L 6.617188 -5.433594 L 6.570312 -5.445312 L 6.460938 -5.667969 L 6.488281 -5.761719 L 6.304688 -5.929688 L 6.347656 -6.0625 L 6.339844 -6.222656 L 6.167969 -6.46875 L 6.148438 -6.515625 L 6.191406 -6.648438 L 6.152344 -6.835938 L 6.097656 -6.960938 L 6.019531 -7.246094 L 5.886719 -7.367188 L 5.960938 -7.5 L 5.875 -7.578125 L 5.800781 -7.796875 L 5.699219 -7.96875 L 5.644531 -8.109375 L 5.671875 -8.175781 L 5.660156 -8.480469 L 5.527344 -8.519531 L 5.460938 -8.933594 L 5.488281 -9.015625 L 5.367188 -9.203125 L 5.234375 -9.339844 L 5.214844 -9.402344 L 5.140625 -9.640625 L 5.011719 -9.601562 L 4.894531 -9.742188 L 4.496094 -9.675781 L 4.433594 -9.6875 L 4.210938 -9.660156 L 4.183594 -9.53125 L 4.09375 -9.382812 L 3.960938 -9.199219 L 3.976562 -9.167969 L 3.886719 -9.039062 L 3.835938 -8.761719 L 3.621094 -8.578125 L 3.671875 -8.449219 L 3.625 -8.160156 L 3.464844 -8.136719 L 3.453125 -8.023438 L 3.363281 -7.859375 L 3.253906 -7.503906 L 3.292969 -7.34375 L 3.167969 -7.257812 L 3.101562 -7 L 3.136719 -6.9375 L 3.050781 -6.707031 L 2.894531 -6.605469 L 2.824219 -6.378906 L 2.910156 -6.285156 L 2.710938 -6.066406 L 2.652344 -5.9375 L 2.710938 -5.78125 L 2.539062 -5.660156 L 2.542969 -5.5625 L 2.492188 -5.304688 L 2.367188 -5.25 L 2.359375 -5.058594 L 2.300781 -4.929688 L 2.277344 -4.703125 L 2.171875 -4.585938 L 2.125 -4.535156 L 2.074219 -4.277344 L 2 -4.128906 L 1.90625 -4.078125 L 1.964844 -3.902344 L 1.816406 -3.65625 L 1.78125 -3.671875 L 1.820312 -3.914062 L 1.730469 -4.101562 L 1.695312 -4.132812 L 1.683594 -4.386719 L 1.636719 -4.433594 L 1.660156 -4.578125 L 1.667969 -4.738281 L 1.542969 -5.019531 L 1.554688 -5.148438 L 1.515625 -5.292969 L 1.503906 -5.515625 L 1.4375 -5.574219 L 1.480469 -5.722656 L 1.4375 -5.878906 L 1.414062 -6.039062 L 1.441406 -6.21875 L 1.511719 -6.363281 L 1.503906 -6.589844 L 1.402344 -6.679688 L 1.347656 -6.835938 L 1.351562 -7.078125 L 1.457031 -7.179688 L 1.453125 -7.339844 L 1.414062 -7.433594 L 1.4375 -7.675781 L 1.332031 -7.859375 L 1.359375 -7.976562 L 1.398438 -8.167969 L 1.40625 -8.34375 L 1.402344 -8.425781 L 1.394531 -8.585938 L 1.320312 -8.773438 L 1.421875 -9.003906 L 1.335938 -9.109375 L 1.351562 -9.175781 L 1.46875 -9.375 L 1.378906 -9.5625 L 1.417969 -9.789062 L 1.523438 -9.921875 L 1.503906 -10.015625 L 1.542969 -10.226562 L 1.457031 -10.285156 L 1.472656 -10.621094 L 1.546875 -10.769531 L 1.359375 -11 L 1.375 -11.066406 L 1.207031 -11.171875 L 1.0625 -11.179688 L 0.855469 -11.21875 L 0.675781 -11.226562 L 0.523438 -11.058594 L 0.371094 -10.90625 L 0.378906 -10.730469 L 0.277344 -10.503906 L 0.339844 -10.234375 L 0.328125 -10.105469 L 0.367188 -9.960938 L 0.28125 -9.796875 L 0.191406 -9.664062 L 0.246094 -9.492188 L 0.191406 -9.25 L 0.230469 -9.140625 L 0.238281 -8.964844 L 0.289062 -8.886719 L 0.265625 -8.757812 L 0.199219 -8.464844 L 0.15625 -8.351562 L 0.238281 -8.289062 L 0.292969 -8.101562 L 0.222656 -7.921875 L 0.296875 -7.683594 L 0.289062 -7.523438 L 0.183594 -7.359375 L 0.335938 -7.207031 L 0.3125 -7.027344 L 0.332031 -6.949219 L 0.277344 -6.722656 L 0.253906 -6.578125 L 0.261719 -6.386719 L 0.375 -6.34375 L 0.289062 -6.179688 L 0.4375 -6.042969 L 0.332031 -5.894531 L 0.40625 -5.6875 L 0.339844 -5.460938 L 0.46875 -5.417969 L 0.410156 -5.257812 L 0.433594 -5.097656 L 0.449219 -4.792969 L 0.582031 -4.65625 L 0.527344 -4.492188 L 0.644531 -4.417969 L 0.566406 -4.300781 L 0.5625 -4.09375 L 0.710938 -3.957031 L 0.703125 -3.796875 L 0.726562 -3.621094 L 0.753906 -3.429688 L 0.746094 -3.269531 L 0.832031 -3.113281 L 0.777344 -2.933594 L 0.78125 -2.808594 L 0.964844 -2.640625 L 0.859375 -2.507812 L 0.933594 -2.300781 L 1.046875 -2.289062 L 0.980469 -2 L 1.050781 -1.859375 L 1.164062 -1.832031 L 1.179688 -1.480469 L 1.316406 -1.34375 L 1.546875 -1.191406 L 1.945312 -1.195312 L 2.050781 -1.34375 L 2.195312 -1.367188 L 2.222656 -1.464844 L 2.359375 -1.632812 L 2.300781 -1.867188 L 2.375 -1.921875 L 2.378906 -2.175781 L 2.496094 -2.4375 L 2.570312 -2.570312 L 2.6875 -2.785156 L 2.792969 -2.964844 L 2.914062 -3.128906 L 2.859375 -3.289062 L 2.960938 -3.453125 L 2.988281 -3.582031 L 3.105469 -3.8125 L 3.035156 -3.9375 L 3.140625 -4.070312 L 3.152344 -4.199219 L 3.289062 -4.347656 L 3.40625 -4.53125 L 3.339844 -4.65625 L 3.460938 -4.804688 L 3.417969 -5.011719 L 3.59375 -5.035156 L 3.628906 -5.308594 L 3.6875 -5.441406 L 3.648438 -5.566406 L 3.832031 -5.703125 L 3.828125 -5.832031 L 3.894531 -6.089844 L 4.035156 -6.226562 L 4.011719 -6.382812 L 4.097656 -6.550781 L 4.148438 -6.839844 L 4.175781 -6.953125 L 4.234375 -7.066406 L 4.355469 -7.234375 L 4.425781 -7.414062 L 4.5 -7.542969 L 4.574219 -7.707031 L 4.5625 -7.898438 L 4.664062 -7.839844 L 4.671875 -7.632812 L 4.804688 -7.527344 L 4.828125 -7.398438 L 4.835938 -7.191406 L 4.824219 -7.128906 L 4.867188 -6.9375 L 5.03125 -6.816406 L 5.007812 -6.671875 L 5.050781 -6.402344 L 5.085938 -6.324219 L 5.105469 -6.210938 L 5.214844 -6.007812 L 5.253906 -5.835938 L 5.289062 -5.773438 L 5.316406 -5.546875 L 5.367188 -5.453125 L 5.523438 -5.207031 L 5.574219 -5.144531 L 5.566406 -4.9375 L 5.707031 -4.71875 L 5.710938 -4.605469 L 5.75 -4.433594 L 5.722656 -4.335938 L 5.839844 -4.210938 L 5.832031 -4.050781 L 5.902344 -3.894531 L 6.007812 -3.769531 L 6.109375 -3.617188 L 6.070312 -3.421875 L 6.136719 -3.34375 L 6.304688 -3.191406 L 6.253906 -2.949219 L 6.429688 -2.894531 L 6.363281 -2.601562 L 6.574219 -2.566406 L 6.535156 -2.402344 L 6.578125 -2.179688 L 6.730469 -2.011719 L 6.730469 -1.980469 L 6.769531 -1.804688 L 6.886719 -1.714844 L 6.929688 -1.507812 L 6.949219 -1.382812 L 7.207031 -0.992188 L 7.261719 -0.882812 L 7.40625 -0.90625 L 7.636719 -0.757812 L 7.921875 -0.832031 L 8.09375 -0.890625 L 8.300781 -0.929688 L 8.375 -1.078125 L 8.4375 -1.449219 L 8.527344 -1.535156 L 8.484375 -1.789062 L 8.558594 -1.953125 L 8.472656 -2.078125 L 8.628906 -2.148438 L 8.648438 -2.375 L 8.582031 -2.449219 L 8.605469 -2.59375 L 8.707031 -2.886719 L 8.765625 -2.972656 L 8.820312 -3.132812 L 8.71875 -3.304688 L 8.902344 -3.507812 L 8.925781 -3.699219 L 8.890625 -3.761719 L 8.925781 -3.988281 L 8.871094 -4.128906 L 8.992188 -4.277344 L 8.9375 -4.46875 L 8.976562 -4.597656 L 9.050781 -4.761719 L 9.09375 -4.90625 L 9.050781 -5.066406 L 9.175781 -5.183594 L 9.148438 -5.421875 L 9.125 -5.550781 L 9.148438 -5.726562 L 9.273438 -5.8125 L 9.21875 -6.003906 L 9.367188 -6.1875 L 9.285156 -6.277344 L 9.34375 -6.394531 L 9.394531 -6.683594 L 9.371094 -6.777344 L 9.476562 -6.992188 L 9.421875 -7.117188 L 9.496094 -7.21875 L 9.425781 -7.390625 L 9.574219 -7.589844 L 9.519531 -7.730469 L 9.496094 -7.890625 L 9.570312 -8.003906 L 9.660156 -8.203125 L 9.605469 -8.328125 L 9.726562 -8.476562 L 9.730469 -8.71875 L 9.675781 -8.890625 L 9.78125 -9.007812 L 9.789062 -9.214844 L 9.703125 -9.292969 L 9.730469 -9.453125 L 9.738281 -9.597656 L 9.730469 -9.773438 L 9.753906 -9.984375 L 9.808594 -10.113281 L 9.929688 -10.296875 L 9.84375 -10.421875 L 9.914062 -10.601562 L 9.832031 -10.660156 L 9.90625 -10.824219 L 9.910156 -11.097656 L 9.988281 -11.132812 L 10.011719 -11.292969 L 9.90625 -11.449219 L 9.992188 -11.675781 L 9.921875 -11.800781 L 9.933594 -11.960938 L 9.972656 -12.109375 L 9.96875 -12.234375 L 10.035156 -12.496094 L 10.027344 -12.65625 L 10.039062 -12.765625 L 9.96875 -12.875 L 10.105469 -13.089844 L 9.996094 -13.324219 L 9.988281 -13.535156 L 9.886719 -13.59375 L 9.8125 -13.8125 L 9.761719 -13.875 Z M 9.566406 -13.980469 "/></g></g></g><g fill="#000000" fill-opacity="1"><g transform="translate(193.701738, 248.319297)"><g><path d="M 8.457031 0.390625 L 8.335938 0.140625 L 8.242188 -0.0820312 L 8.203125 -0.238281 L 8.246094 -0.417969 L 8.140625 -0.585938 L 8.167969 -0.683594 L 8 -0.871094 L 8.089844 -1 L 8.050781 -1.097656 L 7.855469 -1.214844 L 7.890625 -1.472656 L 7.839844 -1.503906 L 7.863281 -1.726562 L 7.792969 -1.851562 L 7.753906 -1.964844 L 7.695312 -2.214844 L 7.671875 -2.421875 L 7.585938 -2.515625 L 7.515625 -2.6875 L 7.445312 -2.796875 L 7.464844 -3.023438 L 7.335938 -3.03125 L 7.28125 -3.175781 L 7.304688 -3.398438 L 7.136719 -3.566406 L 7.113281 -3.742188 L 7.09375 -3.839844 L 7.015625 -4.058594 L 7.027344 -4.171875 L 6.875 -4.355469 L 6.839844 -4.449219 L 6.832031 -4.59375 L 6.828125 -4.691406 L 6.671875 -4.921875 L 6.714844 -5.085938 L 6.628906 -5.144531 L 6.640625 -5.289062 L 6.519531 -5.476562 L 6.46875 -5.554688 L 6.359375 -5.789062 L 6.445312 -5.984375 L 6.671875 -5.980469 L 6.777344 -6.082031 L 7.136719 -6.273438 L 7.234375 -6.3125 L 7.367188 -6.492188 L 7.476562 -6.59375 L 7.503906 -6.691406 L 7.421875 -7.054688 L 7.351562 -7.195312 L 7.210938 -7.160156 L 7.203125 -7.285156 L 6.953125 -7.148438 L 6.636719 -7.050781 L 6.570312 -7.128906 L 6.445312 -7.027344 L 6.304688 -6.957031 L 6.015625 -6.957031 L 5.953125 -6.972656 L 5.867188 -7.113281 L 5.730469 -7.25 L 5.6875 -7.519531 L 5.617188 -7.644531 L 5.550781 -7.707031 L 5.433594 -7.84375 L 5.484375 -8.070312 L 5.304688 -8.144531 L 5.332031 -8.289062 L 5.269531 -8.574219 L 5.152344 -8.679688 L 5.03125 -8.851562 L 4.984375 -8.863281 L 4.945312 -9.023438 L 4.933594 -9.230469 L 4.800781 -9.382812 L 4.828125 -9.464844 L 4.703125 -9.75 L 4.554688 -9.851562 L 4.566406 -9.917969 L 4.507812 -10.125 L 4.371094 -10.292969 L 4.335938 -10.355469 L 4.21875 -10.542969 L 4.242188 -10.65625 L 4.183594 -10.910156 L 4.097656 -11.03125 L 3.886719 -11.085938 L 3.898438 -11.199219 L 3.820312 -11.484375 L 3.75 -11.640625 L 3.667969 -11.667969 L 3.675781 -11.847656 L 3.527344 -11.917969 L 3.441406 -12.089844 L 3.304688 -12.277344 L 3.273438 -12.582031 L 3.09375 -12.667969 L 3.042969 -12.746094 L 2.933594 -12.964844 L 2.722656 -13.050781 L 2.59375 -13.027344 L 2.5625 -13.058594 L 2.164062 -12.992188 L 2.007812 -12.90625 L 1.914062 -12.851562 L 1.902344 -12.789062 L 1.800781 -12.574219 L 1.839844 -12.433594 L 1.789062 -12.109375 L 1.8125 -11.953125 L 1.707031 -11.785156 L 1.808594 -11.679688 L 1.707031 -11.515625 L 1.679688 -11.335938 L 1.726562 -11.082031 L 1.699219 -10.96875 L 1.734375 -10.90625 L 1.746094 -10.667969 L 1.6875 -10.550781 L 1.613281 -10.371094 L 1.703125 -10.183594 L 1.609375 -10.101562 L 1.636719 -9.863281 L 1.628906 -9.734375 L 1.601562 -9.585938 L 1.515625 -9.375 L 1.472656 -9.292969 L 1.527344 -9.121094 L 1.554688 -8.945312 L 1.402344 -8.714844 L 1.410156 -8.585938 L 1.480469 -8.445312 L 1.492188 -8.1875 L 1.320312 -8.117188 L 1.359375 -7.957031 L 1.367188 -7.816406 L 1.265625 -7.585938 L 1.351562 -7.460938 L 1.226562 -7.375 L 1.183594 -7.214844 L 1.289062 -7.027344 L 1.167969 -6.894531 L 1.257812 -6.722656 L 1.132812 -6.585938 L 1.078125 -6.425781 L 1.042969 -6.148438 L 1.082031 -5.960938 L 1.039062 -5.847656 L 1.042969 -5.78125 L 0.988281 -5.554688 L 0.886719 -5.40625 L 0.859375 -5.246094 L 0.863281 -5.148438 L 0.84375 -4.890625 L 0.851562 -4.78125 L 0.855469 -4.667969 L 0.664062 -4.289062 L 0.75 -4.167969 L 0.613281 -4.046875 L 0.570312 -3.902344 L 0.597656 -3.648438 L 0.476562 -3.480469 L 0.546875 -3.421875 L 0.457031 -3.273438 L 0.496094 -3.097656 L 0.375 -2.933594 L 0.402344 -2.726562 L 0.296875 -2.578125 L 0.367188 -2.417969 L 0.183594 -2.21875 L 0.191406 -2.105469 L 0.132812 -1.976562 L 0.0703125 -1.621094 L 0.0195312 -1.328125 L 0.121094 -1.207031 L 0.015625 -1.058594 L 0.148438 -0.953125 L 0.105469 -0.855469 L 0.226562 -0.667969 L 0.546875 -0.601562 L 0.5625 -0.617188 L 0.800781 -0.644531 L 0.878906 -0.746094 L 0.984375 -0.878906 L 1.066406 -1.203125 L 1.089844 -1.378906 L 1.113281 -1.542969 L 1.15625 -1.640625 L 1.210938 -1.816406 L 1.289062 -1.902344 L 1.230469 -2.140625 L 1.304688 -2.253906 L 1.296875 -2.382812 L 1.417969 -2.546875 L 1.394531 -2.707031 L 1.484375 -2.886719 L 1.476562 -3 L 1.503906 -3.113281 L 1.570312 -3.40625 L 1.585938 -3.40625 L 1.652344 -3.695312 L 1.695312 -3.84375 L 1.726562 -3.875 L 1.777344 -4.085938 L 1.785156 -4.328125 L 1.847656 -4.363281 L 2 -4.53125 L 2.105469 -4.628906 L 2.265625 -4.636719 L 2.421875 -4.742188 L 2.691406 -4.785156 L 2.832031 -4.824219 L 2.925781 -4.875 L 3.050781 -4.945312 L 3.335938 -5.007812 L 3.355469 -4.945312 L 3.625 -4.988281 L 3.714844 -5.136719 L 3.832031 -5.09375 L 4.082031 -5.21875 L 4.128906 -5.238281 L 4.367188 -5.25 L 4.734375 -5.296875 L 4.835938 -5.496094 L 4.886719 -5.449219 L 5.042969 -5.566406 L 5.320312 -5.421875 L 5.378906 -5.230469 L 5.382812 -5.152344 L 5.582031 -4.984375 L 5.511719 -4.757812 L 5.613281 -4.648438 L 5.730469 -4.496094 L 5.675781 -4.347656 L 5.761719 -4.175781 L 5.910156 -4.101562 L 5.882812 -3.972656 L 5.894531 -3.71875 L 6.027344 -3.675781 L 6.128906 -3.503906 L 6.171875 -3.296875 L 6.128906 -3.167969 L 6.21875 -2.964844 L 6.355469 -2.828125 L 6.28125 -2.679688 L 6.445312 -2.621094 L 6.4375 -2.382812 L 6.558594 -2.195312 L 6.546875 -2.148438 L 6.523438 -1.96875 L 6.597656 -1.71875 L 6.75 -1.5625 L 6.773438 -1.40625 L 6.855469 -1.3125 L 6.800781 -1.117188 L 6.871094 -0.992188 L 6.960938 -0.835938 L 7.011719 -0.710938 L 7.066406 -0.617188 L 6.996094 -0.40625 L 7.179688 -0.269531 L 7.078125 -0.0429688 L 7.179688 0.144531 L 7.300781 0.300781 L 7.28125 0.605469 L 7.417969 0.742188 L 7.417969 0.757812 L 7.527344 1.011719 L 7.640625 1.101562 L 7.824219 1.1875 L 8.109375 1.160156 L 8.28125 1.023438 L 8.292969 0.972656 L 8.328125 0.714844 L 8.453125 0.613281 Z M 2.265625 -5.710938 L 2.035156 -5.8125 L 2.085938 -6.070312 L 2.128906 -6.183594 L 2.167969 -6.378906 L 2.152344 -6.425781 L 2.238281 -6.574219 L 2.230469 -6.765625 L 2.269531 -6.929688 L 2.339844 -7.140625 L 2.394531 -7.351562 L 2.339844 -7.492188 L 2.40625 -7.511719 L 2.421875 -7.816406 L 2.398438 -7.960938 L 2.476562 -7.996094 L 2.46875 -8.203125 L 2.523438 -8.398438 L 2.519531 -8.507812 L 2.605469 -8.722656 L 2.597656 -8.832031 L 2.554688 -9.070312 L 2.671875 -9.300781 L 2.582031 -9.539062 L 2.65625 -9.636719 L 2.601562 -9.84375 L 2.613281 -9.859375 L 2.765625 -10.058594 L 2.660156 -10.292969 L 2.6875 -10.390625 L 2.785156 -10.652344 L 2.796875 -10.730469 L 2.761719 -10.84375 L 2.832031 -11.023438 L 2.914062 -11.011719 L 2.902344 -10.914062 L 2.957031 -10.804688 L 3.121094 -10.667969 L 3.179688 -10.476562 L 3.246094 -10.402344 L 3.273438 -10.144531 L 3.28125 -10.019531 L 3.320312 -9.875 L 3.503906 -9.691406 L 3.574219 -9.550781 L 3.515625 -9.4375 L 3.597656 -9.375 L 3.65625 -9.15625 L 3.808594 -9.019531 L 3.785156 -8.824219 L 3.851562 -8.730469 L 3.988281 -8.5625 L 4.03125 -8.355469 L 4.144531 -8.296875 L 4.234375 -8.109375 L 4.222656 -8.042969 L 4.339844 -7.921875 L 4.425781 -7.765625 L 4.449219 -7.621094 L 4.574219 -7.371094 L 4.5625 -7.242188 L 4.710938 -7.152344 L 4.722656 -6.929688 L 4.835938 -6.855469 L 4.78125 -6.660156 L 4.777344 -6.453125 L 4.601562 -6.394531 L 4.351562 -6.320312 L 4.273438 -6.269531 L 4.125 -6.292969 L 3.933594 -6.300781 L 3.828125 -6.167969 L 3.714844 -6.164062 L 3.414062 -6.148438 L 3.289062 -6.09375 L 3.113281 -6.054688 L 3.035156 -6.019531 L 2.875 -5.980469 L 2.734375 -5.910156 L 2.496094 -5.898438 L 2.425781 -5.71875 Z M 2.265625 -5.710938 "/></g></g></g><g fill="#000000" fill-opacity="1"><g transform="translate(207.348878, 247.682995)"><g><path d="M 7.429688 -11.667969 L 7.382812 -12.050781 L 7.296875 -12.109375 L 7.175781 -12.347656 L 7.234375 -12.492188 L 7.039062 -12.5 L 7 -12.675781 L 6.949219 -12.75 L 6.699219 -12.949219 L 6.667969 -12.960938 L 6.546875 -13.101562 L 6.335938 -13.171875 L 6.160156 -13.195312 L 6.011719 -13.300781 L 5.867188 -13.246094 L 5.738281 -13.304688 L 5.5 -13.230469 L 5.433594 -13.304688 L 5.226562 -13.230469 L 5.164062 -13.261719 L 4.910156 -13.167969 L 4.714844 -13.238281 L 4.558594 -13.183594 L 4.476562 -13.195312 L 4.324219 -13.0625 L 3.921875 -13.121094 L 3.828125 -13.007812 L 3.734375 -12.953125 L 3.609375 -12.964844 L 3.453125 -12.8125 L 3.265625 -12.738281 L 3.109375 -12.683594 L 2.980469 -12.648438 L 2.792969 -12.589844 L 2.671875 -12.425781 L 2.480469 -12.382812 L 2.386719 -12.363281 L 2.277344 -12.277344 L 2.121094 -12.175781 L 2.027344 -12.152344 L 1.855469 -12.035156 L 1.6875 -11.882812 L 1.546875 -11.8125 L 1.484375 -11.761719 L 1.238281 -11.605469 L 1.242188 -11.507812 L 0.984375 -11.480469 L 0.882812 -11.269531 L 0.851562 -11.25 L 0.632812 -11.191406 L 0.585938 -11.09375 L 0.375 -10.859375 L 0.25 -10.804688 L 0.238281 -10.675781 L 0.0507812 -10.605469 L -0.113281 -10.339844 L -0.238281 -10.269531 L -0.328125 -10.152344 L -0.355469 -10.058594 L -0.34375 -9.769531 L -0.21875 -9.46875 L -0.0429688 -9.511719 L 0.105469 -9.421875 L 0.214844 -9.507812 L 0.421875 -9.53125 L 0.621094 -9.6875 L 0.753906 -9.917969 L 0.914062 -9.941406 L 0.941406 -10.003906 L 1.09375 -10.1875 L 1.316406 -10.261719 L 1.390625 -10.394531 L 1.464844 -10.460938 L 1.636719 -10.597656 L 1.667969 -10.597656 L 1.785156 -10.828125 L 2.019531 -10.921875 L 2.132812 -10.894531 L 2.320312 -11.0625 L 2.429688 -11.082031 L 2.5 -11.261719 L 2.644531 -11.316406 L 2.71875 -11.449219 L 2.84375 -11.519531 L 3.09375 -11.609375 L 3.160156 -11.566406 L 3.285156 -11.636719 L 3.472656 -11.726562 L 3.640625 -11.875 L 3.800781 -11.917969 L 3.863281 -11.96875 L 4.019531 -12.007812 L 4.277344 -12.003906 L 4.339844 -12.054688 L 4.6875 -12.101562 L 4.90625 -12.207031 L 5.082031 -12.25 L 5.207031 -12.300781 L 5.277344 -12.226562 L 5.449219 -12.28125 L 5.644531 -12.210938 L 5.820312 -12.21875 L 5.925781 -12.015625 L 6.003906 -12.035156 L 6.175781 -11.785156 L 6.207031 -11.46875 L 6.144531 -11.417969 L 6.28125 -11.230469 L 6.195312 -11.003906 L 6.074219 -10.933594 L 6.144531 -10.761719 L 6.042969 -10.5625 L 5.867188 -10.507812 L 5.941406 -10.335938 L 5.765625 -10.261719 L 5.746094 -10.070312 L 5.558594 -9.964844 L 5.59375 -9.835938 L 5.425781 -9.652344 L 5.273438 -9.550781 L 5.328125 -9.394531 L 5.1875 -9.289062 L 5.003906 -9.105469 L 4.894531 -9.035156 L 4.898438 -8.941406 L 4.796875 -8.710938 L 4.625 -8.6875 L 4.550781 -8.554688 L 4.472656 -8.503906 L 4.273438 -8.285156 L 4.277344 -8.253906 L 4.105469 -8.101562 L 3.988281 -7.921875 L 3.875 -7.882812 L 3.65625 -7.792969 L 3.617188 -7.582031 L 3.539062 -7.597656 L 3.347656 -7.523438 L 3.175781 -7.417969 L 3.171875 -7.210938 L 2.980469 -7.136719 L 2.925781 -7.007812 L 2.765625 -7.015625 L 2.5625 -6.894531 L 2.515625 -6.8125 L 2.300781 -6.65625 L 2.273438 -6.527344 L 2.027344 -6.644531 L 2.167969 -6.761719 L 2.109375 -7 L 2.113281 -7.191406 L 2.171875 -7.324219 L 2.1875 -7.390625 L 2.078125 -7.609375 L 2.121094 -7.769531 L 2.132812 -7.835938 L 2.105469 -8.121094 L 2.070312 -8.167969 L 2.140625 -8.332031 L 2.082031 -8.570312 L 2.078125 -8.679688 L 2.019531 -8.871094 L 2.121094 -9.082031 L 2.054688 -9.160156 L 2.039062 -9.542969 L 2.0625 -9.671875 L 1.945312 -9.78125 L 1.890625 -9.96875 L 1.851562 -10.113281 L 1.679688 -10.039062 L 1.320312 -10.152344 L 1.167969 -9.984375 L 1.171875 -9.902344 L 1.117188 -9.691406 L 1.042969 -9.546875 L 1 -9.160156 L 0.953125 -9.0625 L 0.957031 -8.980469 L 1.03125 -8.792969 L 0.960938 -8.566406 L 0.972656 -8.339844 L 1.011719 -8.183594 L 1.019531 -8.023438 L 1.089844 -7.914062 L 0.96875 -7.699219 L 1.054688 -7.59375 L 1.0625 -7.417969 L 1.070312 -7.289062 L 1 -7.09375 L 1.003906 -6.996094 L 1.09375 -6.792969 L 0.984375 -6.691406 L 1.046875 -6.40625 L 1.046875 -6.359375 L 0.980469 -6.117188 L 1.082031 -6.023438 L 0.855469 -5.726562 L 0.695312 -5.667969 L 0.382812 -5.511719 L 0.339844 -5.414062 L 0.191406 -5.199219 L 0.0820312 -5.113281 L 0.199219 -4.652344 L 0.25 -4.558594 L 0.464844 -4.488281 L 0.558594 -4.476562 L 0.90625 -4.605469 L 1.039062 -4.515625 L 1.046875 -4.324219 L 1.070312 -4.183594 L 1.0625 -3.988281 L 1.019531 -3.875 L 0.949219 -3.664062 L 1 -3.601562 L 0.984375 -3.3125 L 1.035156 -3.1875 L 1.023438 -3.121094 L 0.933594 -2.972656 L 0.996094 -2.703125 L 1.046875 -2.644531 L 0.945312 -2.414062 L 0.917969 -2.300781 L 0.941406 -2.15625 L 0.898438 -1.996094 L 1.003906 -1.792969 L 1.03125 -1.585938 L 0.957031 -1.421875 L 0.929688 -1.355469 L 0.90625 -1.164062 L 0.867188 -0.96875 L 0.972656 -0.796875 L 0.871094 -0.519531 L 1.042969 -0.335938 L 1.089844 -0.324219 L 1.175781 -0.230469 L 1.304688 -0.15625 L 1.578125 -0.121094 L 1.703125 -0.191406 L 1.777344 -0.324219 L 1.976562 -0.507812 L 1.988281 -0.667969 L 2.039062 -0.894531 L 2.042969 -1.152344 L 2.085938 -1.25 L 2.0625 -1.425781 L 2.070312 -1.632812 L 1.996094 -1.839844 L 2.074219 -1.921875 L 2.003906 -2.046875 L 2.132812 -2.308594 L 2.046875 -2.449219 L 2.121094 -2.566406 L 2.101562 -2.660156 L 2.105469 -2.933594 L 2.117188 -3.0625 L 2.078125 -3.140625 L 2.019531 -3.359375 L 2.046875 -3.457031 L 2.183594 -3.65625 L 2.125 -3.863281 L 2.058594 -3.941406 L 2.050781 -4.132812 L 2.058594 -4.292969 L 2.128906 -4.488281 L 2.058594 -4.660156 L 2.082031 -4.835938 L 2.1875 -4.921875 L 2.070312 -5.046875 L 2.292969 -5.425781 L 2.320312 -5.503906 L 2.449219 -5.558594 L 2.65625 -5.554688 L 2.867188 -5.785156 L 3 -5.746094 L 3.105469 -5.832031 L 3.148438 -5.992188 L 3.347656 -6.160156 L 3.523438 -6.167969 L 3.515625 -6.378906 L 3.675781 -6.367188 L 3.777344 -6.535156 L 3.882812 -6.683594 L 4.074219 -6.707031 L 4.136719 -6.757812 L 4.371094 -6.929688 L 4.511719 -7 L 4.585938 -7.132812 L 4.640625 -7.328125 L 4.878906 -7.339844 L 4.902344 -7.515625 L 5.09375 -7.554688 L 5.167969 -7.65625 L 5.320312 -7.839844 L 5.363281 -7.9375 L 5.5 -8.085938 L 5.539062 -8.25 L 5.636719 -8.285156 L 5.886719 -8.410156 L 5.847656 -8.519531 L 6 -8.703125 L 6.042969 -8.800781 L 6.289062 -9.003906 L 6.332031 -9.167969 L 6.410156 -9.15625 L 6.46875 -9.316406 L 6.652344 -9.519531 L 6.695312 -9.601562 L 6.785156 -9.75 L 6.789062 -9.957031 L 6.894531 -10.089844 L 7.085938 -10.164062 L 7.03125 -10.273438 L 7.152344 -10.453125 L 7.257812 -10.570312 L 7.265625 -10.765625 L 7.242188 -10.941406 L 7.296875 -11.085938 L 7.398438 -11.316406 L 7.335938 -11.34375 L 7.425781 -11.460938 Z M 7.429688 -11.667969 "/></g></g></g></svg>