<?xml version="1.0" encoding="UTF-8" standalone="no"?>
<svg
   width="500"
   zoomAndPan="magnify"
   viewBox="0 0 375 374.999991"
   height="500"
   preserveAspectRatio="xMidYMid meet"
   version="1.0"
   id="svg2341"
   sodipodi:docname="SSfavicon.svg"
   inkscape:version="1.1 (c68e22c387, 2021-05-23)"
   xmlns:inkscape="http://www.inkscape.org/namespaces/inkscape"
   xmlns:sodipodi="http://sodipodi.sourceforge.net/DTD/sodipodi-0.dtd"
   xmlns="http://www.w3.org/2000/svg"
   xmlns:svg="http://www.w3.org/2000/svg">
  <sodipodi:namedview
     id="namedview2343"
     pagecolor="#ffffff"
     bordercolor="#666666"
     borderopacity="1.0"
     inkscape:pageshadow="2"
     inkscape:pageopacity="0.0"
     inkscape:pagecheckerboard="0"
     showgrid="false"
     inkscape:zoom="1.602"
     inkscape:cx="250"
     inkscape:cy="250"
     inkscape:window-width="1920"
     inkscape:window-height="1009"
     inkscape:window-x="3352"
     inkscape:window-y="1075"
     inkscape:window-maximized="1"
     inkscape:current-layer="svg2341" />
  <defs
     id="defs2241">
    <g
       id="g2227" />
    <clipPath
       id="22d2170065">
      <path
         d="M 76 78 L 321.628906 78 L 321.628906 324 L 76 324 Z M 76 78 "
         clip-rule="nonzero"
         id="path2229" />
    </clipPath>
    <clipPath
       id="cc4d205454">
      <path
         d="M 53.128906 85 L 141 85 L 141 135 L 53.128906 135 Z M 53.128906 85 "
         clip-rule="nonzero"
         id="path2232" />
    </clipPath>
    <clipPath
       id="5ac7d84199">
      <path
         d="M 89 120 L 296 120 L 296 214.804688 L 89 214.804688 Z M 89 120 "
         clip-rule="nonzero"
         id="path2235" />
    </clipPath>
    <clipPath
       id="75a0cde7c0">
      <path
         d="M 100 187 L 307 187 L 307 281.894531 L 100 281.894531 Z M 100 187 "
         clip-rule="nonzero"
         id="path2238" />
    </clipPath>
  </defs>
  <g
     clip-path="url(#22d2170065)"
     id="g2245">
    <path
       fill="#f4900c"
       d="M 76.1875 201.085938 C 76.1875 133.335938 131.128906 78.402344 198.902344 78.402344 C 266.679688 78.402344 321.625 133.328125 321.625 201.085938 C 321.625 268.84375 266.679688 323.769531 198.902344 323.769531 C 131.128906 323.769531 76.1875 268.84375 76.1875 201.085938 Z M 76.1875 201.085938 "
       fill-opacity="1"
       fill-rule="nonzero"
       id="path2243" />
  </g>
  <g
     clip-path="url(#cc4d205454)"
     id="g2249">
    <path
       fill="#662113"
       d="M 138.769531 112.496094 C 136.78125 110.507812 132.839844 111.03125 128.691406 113.386719 C 104.144531 93.074219 64.332031 86.234375 62.53125 85.933594 C 58.472656 85.273438 54.65625 87.996094 53.980469 92.039062 C 53.300781 96.085938 56.03125 99.921875 60.085938 100.597656 C 60.480469 100.664062 96.78125 106.949219 118.253906 124.09375 C 116.210938 127.996094 115.84375 131.640625 117.734375 133.523438 C 120.636719 136.429688 127.699219 134.070312 133.507812 128.265625 C 139.320312 122.464844 141.667969 115.402344 138.769531 112.496094 Z M 138.769531 112.496094 "
       fill-opacity="1"
       fill-rule="nonzero"
       id="path2247" />
  </g>
  <path
     fill="#5c913b"
     d="M 210.066406 63.53125 C 210.066406 63.53125 186.964844 95.636719 157.84375 102.738281 C 135.6875 108.144531 106.242188 108.664062 103.304688 101.824219 C 100.375 94.992188 114.996094 72.550781 140.261719 61.726562 C 165.527344 50.90625 210.066406 63.53125 210.066406 63.53125 Z M 210.066406 63.53125 "
     fill-opacity="1"
     fill-rule="nonzero"
     id="path2251" />
  <g
     clip-path="url(#5ac7d84199)"
     id="g2255">
    <path
       fill="#ffffff"
       d="M 295.398438 157.546875 C 294.832031 154.914062 293.023438 152.226562 293.261719 150.105469 C 294.15625 142.425781 289.519531 140.105469 283.710938 138.183594 C 259.246094 130.050781 234.34375 123.796875 208.707031 120.6875 C 199.542969 119.574219 197.277344 122.042969 199.304688 131.054688 C 199.5625 132.171875 199.980469 133.25 200.292969 134.363281 C 201.296875 138.113281 204.089844 139.832031 207.539062 139.191406 C 210.917969 138.550781 213.949219 139.355469 217.035156 139.976562 C 224.941406 141.550781 232.773438 143.378906 240.640625 145.113281 C 240.878906 145.535156 240.914062 145.972656 240.75 146.429688 C 232.261719 147.160156 223.789062 148.167969 215.300781 148.550781 C 193.515625 149.519531 172.117188 154.75 150.082031 153.726562 C 139.601562 153.25 128.957031 154.988281 118.496094 156.484375 C 110.261719 157.675781 101.917969 157.050781 93.773438 158.789062 C 89.628906 159.667969 88.863281 160.726562 91.308594 164.109375 C 96.164062 170.875 101.242188 177.601562 111.300781 175.425781 C 113.070312 175.042969 114.972656 175.242188 116.816406 175.042969 C 133.996094 173.304688 151.230469 172.335938 168.449219 171.238281 C 187.054688 170.050781 205.660156 168.789062 224.265625 167.511719 C 230.472656 167.089844 236.660156 166.503906 243.472656 165.957031 C 241.574219 169.007812 239.109375 169.90625 237.082031 171.292969 C 230.214844 175.992188 224.117188 181.585938 217.820312 186.980469 C 208.195312 195.207031 212.324219 206.175781 217.015625 212.90625 C 217.890625 214.164062 219.023438 214.878906 220.246094 213.160156 C 223.953125 207.96875 229.46875 204.898438 234.523438 201.351562 C 249.023438 191.148438 264.210938 182.027344 279.402344 172.902344 C 283.347656 170.527344 287.308594 168.1875 291.269531 165.882812 C 294.503906 164.019531 296.367188 161.988281 295.398438 157.546875 Z M 243.453125 145.441406 C 243.5625 145.386719 243.671875 145.371094 243.78125 145.277344 C 243.707031 145.371094 243.617188 145.425781 243.527344 145.480469 C 243.507812 145.480469 243.488281 145.460938 243.453125 145.441406 Z M 243.453125 145.441406 "
       fill-opacity="1"
       fill-rule="nonzero"
       id="path2253" />
  </g>
  <g
     clip-path="url(#75a0cde7c0)"
     id="g2259">
    <path
       fill="#ffffff"
       d="M 101.1875 243.902344 C 101.753906 246.535156 103.5625 249.222656 103.324219 251.34375 C 102.429688 259.023438 107.066406 261.34375 112.871094 263.261719 C 137.339844 271.398438 162.242188 277.652344 187.875 280.757812 C 197.042969 281.875 199.304688 279.40625 197.28125 270.394531 C 197.023438 269.277344 196.605469 268.199219 196.292969 267.085938 C 195.289062 263.335938 192.496094 261.617188 189.046875 262.257812 C 185.667969 262.898438 182.636719 262.09375 179.550781 261.472656 C 171.644531 259.898438 163.8125 258.070312 155.941406 256.335938 C 155.707031 255.914062 155.667969 255.476562 155.832031 255.019531 C 164.324219 254.285156 172.796875 253.28125 181.285156 252.898438 C 203.066406 251.929688 224.464844 246.699219 246.503906 247.722656 C 256.984375 248.199219 267.628906 246.460938 278.089844 244.964844 C 286.324219 243.773438 294.667969 244.394531 302.8125 242.660156 C 306.957031 241.78125 307.722656 240.722656 305.277344 237.339844 C 300.417969 230.574219 295.34375 223.847656 285.285156 226.023438 C 283.511719 226.40625 281.613281 226.207031 279.769531 226.40625 C 262.589844 228.144531 245.351562 229.113281 228.136719 230.210938 C 209.53125 231.398438 190.925781 232.660156 172.320312 233.9375 C 166.113281 234.359375 159.921875 234.945312 153.113281 235.492188 C 155.011719 232.441406 157.476562 231.542969 159.503906 230.15625 C 166.367188 225.457031 172.46875 219.863281 178.765625 214.46875 C 188.386719 206.242188 184.261719 195.273438 179.570312 188.542969 C 178.691406 187.28125 177.5625 186.570312 176.335938 188.289062 C 172.632812 193.480469 167.117188 196.550781 162.058594 200.097656 C 147.5625 210.300781 132.371094 219.421875 117.179688 228.546875 C 113.238281 230.921875 109.277344 233.261719 105.3125 235.566406 C 102.082031 237.429688 100.21875 239.460938 101.1875 243.902344 Z M 153.132812 256.003906 C 153.023438 256.058594 152.914062 256.078125 152.804688 256.167969 C 152.875 256.078125 152.96875 256.023438 153.058594 255.96875 C 153.078125 255.96875 153.09375 255.988281 153.132812 256.003906 Z M 153.132812 256.003906 "
       fill-opacity="1"
       fill-rule="nonzero"
       id="path2257" />
  </g>
</svg>
